<svg xmlns="http://www.w3.org/2000/svg" xmlns:xlink="http://www.w3.org/1999/xlink" width="1024" height="400"><title>Yellow Lamborghini</title><defs><linearGradient id="linearGradient16768"><stop id="stop16770" offset="0" stop-color="#000"/><stop id="stop16776" offset=".695" stop-color="#000" stop-opacity=".498"/><stop id="stop16772" offset="1" stop-color="#000" stop-opacity="0"/></linearGradient><pattern id="pattern16303" patternTransform="matrix(0.6065256,0,0,0.6065256,456.48524,743.91509)" xlink:href="#pattern9238"/><linearGradient id="linearGradient16283"><stop id="stop16285" offset="0" stop-color="#252b41"/><stop id="stop16287" offset="1" stop-color="#252b41" stop-opacity="0"/></linearGradient><linearGradient id="linearGradient7359"><stop id="stop7361" offset="0" stop-color="#000"/><stop id="stop7363" offset="1" stop-color="#1e1d2e"/></linearGradient><linearGradient id="linearGradient7172"><stop id="stop7174" offset="0" stop-color="#fff"/><stop id="stop7176" offset="1" stop-color="#03070b" stop-opacity=".655"/></linearGradient><linearGradient id="linearGradient6994"><stop id="stop6996" offset="0" stop-color="#1b2c3c"/><stop id="stop6998" offset="1" stop-color="#dfe8f1"/></linearGradient><linearGradient id="linearGradient6168"><stop id="stop6170" offset="0" stop-color="#fff" stop-opacity="0"/><stop id="stop6172" offset="1" stop-color="#fdca01"/></linearGradient><linearGradient id="linearGradient9887"><stop id="stop9889" offset="0" stop-color="#fd3301"/><stop id="stop9891" offset="1" stop-color="#fd3301" stop-opacity="0"/></linearGradient><linearGradient id="linearGradient5896"><stop id="stop5898" offset="0" stop-color="#fff"/><stop id="stop5907" offset=".219" stop-color="#a3701c"/><stop id="stop5900" offset="1" stop-color="#582d00"/></linearGradient><linearGradient id="linearGradient5915"><stop id="stop5917" offset="0" stop-color="#aaa"/><stop id="stop5919" offset="1" stop-color="#aaa" stop-opacity="0"/></linearGradient><pattern id="pattern9238" patternTransform="matrix(0.6065256,0,0,0.6065256,308.75,855.34375)" xlink:href="#pattern8227"/><linearGradient id="linearGradient5979"><stop id="stop5981" offset="0" stop-color="#eee"/><stop id="stop5983" offset="1" stop-color="#eee" stop-opacity="0"/></linearGradient><linearGradient id="linearGradient4971"><stop id="stop4973" offset="0" stop-color="#000"/><stop id="stop4975" offset="1" stop-color="#000" stop-opacity="0"/></linearGradient><linearGradient id="linearGradient7563"><stop id="stop7565" offset="0" stop-color="#888"/><stop id="stop7567" offset="1" stop-color="#fff"/></linearGradient><linearGradient id="linearGradient6653"><stop id="stop6655" offset="0" stop-color="#410e0e"/><stop id="stop6657" offset="1" stop-color="#100303" stop-opacity="0"/></linearGradient><pattern id="pattern8227" width="17.5" height="13" patternTransform="translate(308.75,855.34375)" patternUnits="userSpaceOnUse"><path id="path8209" fill="#000" fill-rule="evenodd" stroke-dashoffset="0" stroke-miterlimit="4" marker-end="none" marker-mid="none" marker-start="none" d="m6.66667,9.66667c0,-1.84 -1.49335,-3.33334 -3.33334,-3.33334c-1.84,0 -3.33334,1.49334 -3.33333,3.33334c0,1.84 1.49332,3.33333 3.33333,3.33333c1.84,0 3.33332,-1.49333 3.33334,-3.33333z"/><path id="path8207" fill="#000" fill-rule="evenodd" stroke-dashoffset="0" stroke-miterlimit="4" marker-end="none" marker-mid="none" marker-start="none" d="m14,9.66667c0,-1.84 -1.49335,-3.33334 -3.33333,-3.33334c-1.84,0 -3.33335,1.49334 -3.33334,3.33334c0,1.84 1.49332,3.33333 3.33334,3.33333c1.84,0 3.333321,-1.49333 3.33333,-3.33333z"/><path id="path8185" fill="#000" fill-rule="evenodd" stroke-dashoffset="0" stroke-miterlimit="4" marker-end="none" marker-mid="none" marker-start="none" d="m10.16667,3.33333c0,-1.84 -1.49335,-3.33333 -3.33334,-3.33333c-1.84,0 -3.33334,1.49333 -3.33333,3.33333c0,1.84 1.49332,3.33334 3.33333,3.33334c1.84,0 3.33332,-1.49334 3.33334,-3.33334z"/><path id="path8189" fill="#000" fill-rule="evenodd" stroke-dashoffset="0" stroke-miterlimit="4" marker-end="none" marker-mid="none" marker-start="none" d="m17.5,3.33333c0,-1.84 -1.493349,-3.33333 -3.33333,-3.33333c-1.84,0 -3.33335,1.49333 -3.33334,3.33333c0,1.84 1.49332,3.33334 3.33334,3.33334c1.84,0 3.333321,-1.49334 3.33333,-3.33334z"/></pattern><radialGradient id="radialGradient16455" cx="621.828" cy="590.568" r="71.858" fx="621.828" fy="590.568" gradientTransform="matrix(0.7247288,4.7748978e-7,-9.2253958e-7,1.4002205,607.0091,-234.03519)" gradientUnits="userSpaceOnUse" spreadMethod="reflect" xlink:href="#linearGradient7359"/><radialGradient id="radialGradient16457" cx="632.275" cy="608.504" r="71.858" fx="632.275" fy="608.504" gradientTransform="matrix(0.49031,1.2063286e-2,-1.9763188e-2,0.803271,779.5851,102.5948)" gradientUnits="userSpaceOnUse" spreadMethod="reflect" xlink:href="#linearGradient5979"/><radialGradient id="radialGradient16459" cx="627.109" cy="603.69" r="71.858" fx="627.109" fy="603.69" gradientTransform="matrix(0.8568629,0,1.7020635e-6,1.6555117,524.14496,-388.15174)" gradientUnits="userSpaceOnUse" spreadMethod="reflect" xlink:href="#linearGradient4971"/><linearGradient id="linearGradient16461" x1="1.252" x2="-.453" y1=".192" y2="2.081" spreadMethod="reflect" xlink:href="#linearGradient6994"/><linearGradient id="linearGradient16463" x1=".315" x2=".777" y1=".62" y2=".366" xlink:href="#linearGradient4971"/><linearGradient id="linearGradient16465" x1="-.251" x2=".932" y1="1.14" y2="0" xlink:href="#linearGradient5979"/><linearGradient id="linearGradient16467" x1=".712" x2=".65" y1=".236" y2="1" xlink:href="#linearGradient7172"/><radialGradient id="radialGradient16469" cx="624.908" cy="583.85" r="8.25" fx="624.908" fy="583.85" gradientTransform="matrix(11.672373,0,0,10.017213,-6665.6971,-5267.5279)" gradientUnits="userSpaceOnUse" xlink:href="#linearGradient7172"/><linearGradient id="linearGradient16471" x1=".5" x2="0" y1=".284" y2="1" xlink:href="#linearGradient7172"/><linearGradient id="linearGradient16473" x1=".721" x2=".5" y1=".528" y2="1.078" xlink:href="#linearGradient7172"/><linearGradient id="linearGradient16475" x1=".739" x2="0" y1=".5" y2="1" xlink:href="#linearGradient7172"/><linearGradient id="linearGradient16477" x1="0" x2="-.722" y1=".5" y2="1" xlink:href="#linearGradient7172"/><linearGradient id="linearGradient16479" x1="0" x2="1" y1="1" y2="0" xlink:href="#linearGradient4971"/><linearGradient id="linearGradient16481" x1="0" x2="1.432" y1=".761" y2="0" xlink:href="#linearGradient4971"/><linearGradient id="linearGradient16483" x1=".776" x2=".114" y1=".403" y2="0" xlink:href="#linearGradient4971"/><linearGradient id="linearGradient16485" x1=".731" x2=".217" y1=".569" y2="1.064" xlink:href="#linearGradient4971"/><linearGradient id="linearGradient16487" x1="-.306" x2="2.532" y1=".61" y2=".561" xlink:href="#linearGradient6994"/><linearGradient id="linearGradient16489" x1="0" x2="3.557" y1=".156" y2="2.038" xlink:href="#linearGradient6994"/><linearGradient id="linearGradient16491" x1="0" x2="1.892" y1=".5" y2="1" xlink:href="#linearGradient6994"/><linearGradient id="linearGradient16493" x1="-1.993" x2="6.082" y1="1" y2="0" xlink:href="#linearGradient6994"/><radialGradient id="radialGradient16495" cx="621.828" cy="590.568" r="71.858" fx="621.828" fy="590.568" gradientTransform="matrix(0.7247288,4.7748978e-7,-9.2253958e-7,1.4002205,175.67396,-234.03519)" gradientUnits="userSpaceOnUse" spreadMethod="reflect" xlink:href="#linearGradient7359"/><radialGradient id="radialGradient16497" cx="632.275" cy="608.504" r="71.858" fx="632.275" fy="608.504" gradientTransform="matrix(0.49031,1.2063286e-2,-1.9763188e-2,0.803271,348.24996,102.5948)" gradientUnits="userSpaceOnUse" spreadMethod="reflect" xlink:href="#linearGradient5979"/><radialGradient id="radialGradient16499" cx="627.109" cy="603.69" r="71.858" fx="627.109" fy="603.69" gradientTransform="matrix(0.7247288,4.7748978e-7,-9.2253958e-7,1.4002205,175.67396,-234.03519)" gradientUnits="userSpaceOnUse" spreadMethod="reflect" xlink:href="#linearGradient4971"/><linearGradient id="linearGradient16501" x1=".345" x2=".815" y1=".85" y2=".271" spreadMethod="reflect" xlink:href="#linearGradient6994"/><linearGradient id="linearGradient16503" x1=".5" x2="-.977" y1=".5" y2=".9" spreadMethod="reflect" xlink:href="#linearGradient6994"/><linearGradient id="linearGradient16505" x1=".315" x2=".777" y1=".62" y2=".366" xlink:href="#linearGradient4971"/><linearGradient id="linearGradient16507" x1="-.251" x2=".932" y1="1.14" y2="0" xlink:href="#linearGradient5979"/><linearGradient id="linearGradient16509" x1=".712" x2=".65" y1=".236" y2="1" xlink:href="#linearGradient7172"/><radialGradient id="radialGradient16511" cx="624.908" cy="583.85" r="8.25" fx="624.908" fy="583.85" gradientTransform="matrix(11.672373,0,0,10.017213,-6665.6971,-5267.5279)" gradientUnits="userSpaceOnUse" xlink:href="#linearGradient7172"/><linearGradient id="linearGradient16513" x1=".5" x2="0" y1=".284" y2="1" xlink:href="#linearGradient7172"/><linearGradient id="linearGradient16515" x1=".721" x2=".5" y1=".528" y2="1.078" xlink:href="#linearGradient7172"/><linearGradient id="linearGradient16517" x1=".739" x2="0" y1=".5" y2="1" xlink:href="#linearGradient7172"/><linearGradient id="linearGradient16519" x1="0" x2="-.722" y1=".5" y2="1" xlink:href="#linearGradient7172"/><linearGradient id="linearGradient16521" x1="0" x2="1" y1="1" y2="0" xlink:href="#linearGradient4971"/><linearGradient id="linearGradient16523" x1="0" x2="1.432" y1=".761" y2="0" xlink:href="#linearGradient4971"/><linearGradient id="linearGradient16525" x1=".776" x2=".114" y1=".403" y2="0" xlink:href="#linearGradient4971"/><linearGradient id="linearGradient16527" x1=".731" x2=".217" y1=".569" y2="1.064" xlink:href="#linearGradient4971"/><linearGradient id="linearGradient16529" x1="-.306" x2="2.532" y1=".61" y2=".561" xlink:href="#linearGradient6994"/><linearGradient id="linearGradient16531" x1="0" x2="3.557" y1=".156" y2="2.038" xlink:href="#linearGradient6994"/><linearGradient id="linearGradient16533" x1="0" x2="1.892" y1=".5" y2="1" xlink:href="#linearGradient6994"/><linearGradient id="linearGradient16535" x1="-1.993" x2="6.082" y1="1" y2="0" xlink:href="#linearGradient6994"/><radialGradient id="radialGradient16537" cx="623.779" cy="586.529" r="71.858" fx="623.779" fy="586.529" gradientTransform="matrix(0.7070721,4.0313278e-2,-4.9839809e-3,1.2937873,-140.36016,-317.79573)" gradientUnits="userSpaceOnUse" spreadMethod="reflect" xlink:href="#linearGradient7359"/><linearGradient id="linearGradient16539" x1=".984" x2=".863" y1="-.143" y2="1.642" xlink:href="#linearGradient6653"/><linearGradient id="linearGradient16541" x1=".307" x2=".316" y1="-.744" y2="1" xlink:href="#linearGradient6653"/><linearGradient id="linearGradient16543" x1=".414" x2=".46" y1="1.355" y2="0" xlink:href="#linearGradient5979"/><linearGradient id="linearGradient16545" x1=".419" x2=".421" y1=".762" y2="0" xlink:href="#linearGradient6653"/><radialGradient id="radialGradient16547" cx="144.491" cy="843.383" r="329.031" fx="144.491" fy="843.383" gradientTransform="matrix(2.3861582,-0.1975496,4.5194138e-2,0.54589,-102.23127,18.583702)" gradientUnits="userSpaceOnUse" xlink:href="#linearGradient6653"/><linearGradient id="linearGradient16549" x1="-Infinity" x2="Infinity" y1="-Infinity" y2="-Infinity" xlink:href="#linearGradient5979"/><linearGradient id="linearGradient16551" x1="-Infinity" x2="Infinity" y1=".546" y2=".546" xlink:href="#linearGradient5896"/><linearGradient id="linearGradient16553" x1=".5" x2=".455" y1="1.129" y2="-.226" xlink:href="#linearGradient16283"/><linearGradient id="linearGradient16555" x1=".741" x2=".651" y1="-.431" y2="1.554" xlink:href="#linearGradient5979"/><linearGradient id="linearGradient16557" x1=".656" x2=".423" y1="-.476" y2="1" xlink:href="#linearGradient4971"/><linearGradient id="linearGradient16559" x1="-1.033" x2=".5" y1="1.861" y2="0" xlink:href="#linearGradient5979"/><linearGradient id="linearGradient16561" x1=".457" x2=".462" y1="1" y2=".787" xlink:href="#linearGradient4971"/><linearGradient id="linearGradient16563" x1=".335" x2=".281" y1="1.347" y2=".5" xlink:href="#linearGradient5979"/><linearGradient id="linearGradient16565" x1=".57" x2=".618" y1="1" y2=".692" xlink:href="#linearGradient4971"/><linearGradient id="linearGradient16567" x1=".733" x2=".948" y1="-.203" y2=".365" xlink:href="#linearGradient5979"/><linearGradient id="linearGradient16569" x1=".034" x2=".062" y1="1.002" y2=".688" xlink:href="#linearGradient5915"/><linearGradient id="linearGradient16571" x1=".499" x2=".499" y1=".998" y2="-.002" xlink:href="#linearGradient5979"/><linearGradient id="linearGradient16573" x1="-.592" x2=".5" y1="-.524" y2=".732" xlink:href="#linearGradient5979"/><linearGradient id="linearGradient16575" x1="-.284" x2=".609" y1="1.895" y2=".237" xlink:href="#linearGradient5979"/><linearGradient id="linearGradient16577" x1="0" x2=".636" y1="-.099" y2=".368" xlink:href="#linearGradient5979"/><linearGradient id="linearGradient16579" x1=".013" x2=".976" y1=".496" y2=".496" xlink:href="#linearGradient7563"/><radialGradient id="radialGradient16581" cx="485.419" cy="622.224" r="83.828" fx="485.419" fy="622.224" gradientTransform="matrix(0.8714355,-0.2529109,0.450022,1.5506058,-62.869165,-321.82896)" gradientUnits="userSpaceOnUse" xlink:href="#linearGradient5979"/><linearGradient id="linearGradient16583" x1=".181" x2="1.854" y1="1.409" y2="-.703" xlink:href="#linearGradient5896"/><radialGradient id="radialGradient16585" cx="546.218" cy="282.168" r="85.484" fx="546.218" fy="282.168" gradientTransform="matrix(3.4352254,0,0,2.2032911,-1194.626,-430.37181)" gradientUnits="userSpaceOnUse" xlink:href="#linearGradient6653"/><linearGradient id="linearGradient16587" x1=".884" x2=".363" y1="-.894" y2="1.44" xlink:href="#linearGradient9887"/><linearGradient id="linearGradient16589" x1=".38" x2=".361" y1="-.376" y2="1.428" xlink:href="#linearGradient6653"/><radialGradient id="radialGradient16591" cx="694.814" cy="524.133" r="74.5" fx="694.814" fy="524.133" gradientTransform="matrix(2.8264284,-0.7573394,0.2982976,1.1132617,-1280.2934,299.46096)" gradientUnits="userSpaceOnUse" xlink:href="#linearGradient6653"/><radialGradient id="radialGradient16593" cx="759.126" cy="384.777" r="109.077" fx="759.126" fy="384.777" gradientTransform="matrix(2.3495254,-0.6412255,0.4559493,1.6706524,-993.18266,130.54561)" gradientUnits="userSpaceOnUse" xlink:href="#linearGradient6653"/><radialGradient id="radialGradient16595" cx="740.1" cy="545.546" r="41.69" fx="740.1" fy="545.546" gradientTransform="matrix(2.9001307,0,0,4.6481105,-1417.2549,-1993.7494)" gradientUnits="userSpaceOnUse" xlink:href="#linearGradient6653"/><radialGradient id="radialGradient16597" cx="743.963" cy="403.925" r="18.188" fx="743.963" fy="403.925" gradientTransform="matrix(2.1210367,0.5683301,-0.2715969,1.0136134,-565.77117,-547.95221)" gradientUnits="userSpaceOnUse" xlink:href="#linearGradient6653"/><radialGradient id="radialGradient16599" cx="735.359" cy="662.383" r="78.531" fx="735.359" fy="662.383" gradientTransform="matrix(2.6547775,-0.7186008,0.1510532,0.5580468,-1169.0953,673.49613)" gradientUnits="userSpaceOnUse" xlink:href="#linearGradient5979"/><linearGradient id="linearGradient16601" x1=".653" x2=".5" y1="1.855" y2="-.138" xlink:href="#linearGradient5979"/><radialGradient id="radialGradient16603" cx="694.371" cy="440.879" r="11.276" fx="694.371" fy="440.879" gradientTransform="matrix(3.5383716,0,0,5.1887293,-1615.212,-1965.6739)" gradientUnits="userSpaceOnUse" xlink:href="#linearGradient6653"/><radialGradient id="radialGradient16605" cx="683.879" cy="438.907" r="11.276" fx="683.879" fy="438.907" gradientTransform="matrix(5.2603719,2.9916471e-6,-2.0701034e-6,3.6415525,-2792.8506,-1286.6091)" gradientUnits="userSpaceOnUse" xlink:href="#linearGradient6653"/><radialGradient id="radialGradient16607" cx="669.973" cy="436.953" r="11.276" fx="669.973" fy="436.953" gradientTransform="matrix(2.1138949,-2.1138949,3.4716936,3.4716936,-2159.8566,218.56252)" gradientUnits="userSpaceOnUse" xlink:href="#linearGradient6653"/><linearGradient id="linearGradient16609" x1="-.02" x2="1.02" y1="2.595" y2="2.595" xlink:href="#linearGradient6168"/><radialGradient id="radialGradient16611" cx="670.3" cy="458.758" r="43.912" fx="670.3" fy="458.758" gradientTransform="matrix(3.8402166,0.7909022,-1.0111264,4.9095139,-1192.09,-2457.2002)" gradientUnits="userSpaceOnUse" xlink:href="#linearGradient6653"/><radialGradient id="radialGradient16613" cx="731.871" cy="603.616" r="78.531" fx="731.871" fy="603.616" gradientTransform="matrix(0.8944671,-0.2638915,0.1635923,0.5545005,37.515745,362.00046)" gradientUnits="userSpaceOnUse" xlink:href="#linearGradient5979"/><radialGradient id="radialGradient16615" cx="677.773" cy="596.815" r="78.531" fx="677.773" fy="596.815" gradientTransform="matrix(1.4471758,-0.5304909,0.1225788,0.3343942,-283.83888,677.4377)" gradientUnits="userSpaceOnUse" xlink:href="#linearGradient5979"/><radialGradient id="radialGradient16617" cx="735.359" cy="662.383" r="78.531" fx="735.359" fy="662.383" gradientTransform="matrix(2.6547775,-0.7186008,0.1510532,0.5580468,-1169.0953,673.49613)" gradientUnits="userSpaceOnUse" xlink:href="#linearGradient5979"/><radialGradient id="radialGradient16619" cx="672.325" cy="444.135" r="11.276" fx="672.325" fy="444.135" gradientTransform="matrix(-1.845047,0.458768,-1.1814184,-4.7513634,2551.6039,2162.2995)" gradientUnits="userSpaceOnUse" xlink:href="#linearGradient6653"/><linearGradient id="linearGradient16621" x1="-.02" x2="1.02" y1="2.595" y2="2.595" xlink:href="#linearGradient6168"/><radialGradient id="radialGradient16623" cx="692.58" cy="414.13" r="109.077" fx="692.58" fy="414.13" gradientTransform="matrix(0.2721536,-6.7514595e-8,8.4675827e-8,0.8904721,803.53639,-44.949678)" gradientUnits="userSpaceOnUse" xlink:href="#linearGradient6653"/><linearGradient id="linearGradient16625" x1=".584" x2=".537" y1=".5" y2="1.569" xlink:href="#linearGradient5915"/><linearGradient id="linearGradient16627" x1=".028" x2=".227" y1=".233" y2=".595" spreadMethod="reflect" xlink:href="#linearGradient7563"/><linearGradient id="linearGradient16629" x1=".238" x2=".401" y1=".191" y2=".46" spreadMethod="reflect" xlink:href="#linearGradient7563"/><linearGradient id="linearGradient16631" x1="-.052" x2="0" y1="-.225" y2=".714" spreadMethod="pad" xlink:href="#linearGradient4971"/><linearGradient id="linearGradient16633" x1=".133" x2=".409" y1="0" y2=".219" spreadMethod="pad" xlink:href="#linearGradient4971"/><linearGradient id="linearGradient16635" x1=".236" x2=".5" y1="-.137" y2=".559" xlink:href="#linearGradient4971"/><linearGradient id="linearGradient16637" x1=".146" x2=".86" y1=".648" y2=".308" xlink:href="#linearGradient7563"/><radialGradient id="radialGradient16639" cx="498.18" cy="456.265" r="5.555" fx="498.18" fy="456.265" gradientTransform="matrix(3.5471198,0,0.8432064,3.8857691,-1683.1448,-1299.1308)" gradientUnits="userSpaceOnUse" xlink:href="#linearGradient5979"/><radialGradient id="radialGradient16641" cx="512.216" cy="446.956" r="5.555" fx="512.216" fy="446.956" gradientTransform="matrix(2.909494,0,0,3.0952632,-978.07259,-936.84511)" gradientUnits="userSpaceOnUse" xlink:href="#linearGradient5979"/><radialGradient id="radialGradient16643" cx="429.214" cy="515.315" r="29.948" fx="429.214" fy="515.315" gradientTransform="matrix(1.5498027,0,0,8.6121368e-2,-235.98288,470.93498)" gradientUnits="userSpaceOnUse" xlink:href="#linearGradient5979"/><linearGradient id="linearGradient16645" x1=".375" x2=".395" y1="2.082" y2="-1.652" xlink:href="#linearGradient6994"/><linearGradient id="linearGradient16647" x1=".513" x2=".52" y1="1.235" y2=".5" xlink:href="#linearGradient6994"/><linearGradient id="linearGradient16649" x1=".385" x2=".772" y1="1.484" y2="0" xlink:href="#linearGradient16283"/><radialGradient id="radialGradient16804" cx="540.557" cy="440.624" r="424.046" fx="540.557" fy="440.624" gradientTransform="matrix(1,0,0,0.485623,0,226.64685)" gradientUnits="userSpaceOnUse" xlink:href="#linearGradient16768"/><radialGradient id="radialGradient16806" cx="540.557" cy="440.624" r="424.046" fx="540.557" fy="440.624" gradientTransform="matrix(1,0,0,0.485623,0,226.64685)" gradientUnits="userSpaceOnUse" xlink:href="#linearGradient16768"/></defs><g><title>Layer 1</title><g id="g16312" transform="matrix(0.821324 0 0 0.821324 69.8981 106.933)"><path id="path7345" fill="#000" fill-rule="evenodd" stroke-dashoffset="0" stroke-linecap="round" stroke-miterlimit="4" stroke-width=".5" marker-end="none" marker-mid="none" marker-start="none" d="m738.028992,21.661987c-2.281982,0.0914 -4.609009,0.541901 -6.968994,1.406311c-30.211975,11.0634 -54.718994,82.899582 -54.718994,160.343582c0,17.407013 1.237,33.632019 3.5,48.187988l101.5,-31.093994c2.870972,-18.085999 4.468994,-37.430969 4.468994,-57.155975c0,-71.394211 -20.856018,-122.766006 -47.781006,-121.687912z"/><path id="path11311" fill="#000" fill-rule="evenodd" stroke-dashoffset="0" stroke-linecap="round" stroke-miterlimit="4" marker-end="none" marker-mid="none" marker-start="none" d="m953.434998,20.630798c-18.088013,0.62059 -25.002991,36.176193 -30.656006,80.750092c-2.575012,20.304001 -5.286987,42.138992 -5.531982,59.936996l0.375,-2.75l44.375,-76.655899l1.625,0.531296c2.734985,-35.515686 -0.580017,-62.142197 -10.187012,-61.812485z"/><g id="g12225" transform="matrix(0.42926 0 0.0184518 0.686631 518.198 24.9129)"><path id="path12100" fill="url(#radialGradient16455)" fill-rule="evenodd" stroke-dashoffset="0" stroke-linecap="round" stroke-miterlimit="4" stroke-width="2" marker-end="none" marker-mid="none" marker-start="none" d="m992.81189,20.032074l-142.968994,1.124985c-24.177979,0 -49.398987,51.54071 -52.041016,111.344086c-2.642944,59.80304 14.822021,104.312012 39,104.312012l146.447998,-0.093994c24.18103,0 45.950928,-48.539978 48.591064,-108.343018c2.640015,-59.803375 -14.850037,-108.34407 -39.029053,-108.34407z"/><path id="path12102" fill="url(#radialGradient16457)" fill-rule="evenodd" stroke-dashoffset="0" stroke-linecap="round" stroke-miterlimit="4" stroke-width="2" marker-end="none" marker-mid="none" marker-start="none" d="m992.81189,20.032074l-143.125977,1.124985c-24.177979,0 -49.399048,51.54071 -52.041992,111.344086c-2.643066,59.80304 14.82196,104.312012 39,104.312012l146.605957,-0.093994c24.18103,0 45.950928,-48.539978 48.591064,-108.343018c2.640015,-59.803375 -14.850037,-108.34407 -39.029053,-108.34407z" opacity=".145"/><path id="path12104" fill="url(#radialGradient16459)" fill-rule="evenodd" stroke-dashoffset="0" stroke-linecap="round" stroke-miterlimit="4" stroke-width="2" marker-end="none" marker-mid="none" marker-start="none" d="m992.81189,20.032074l-142.968994,1.124985c-24.177979,0 -49.398987,51.54071 -52.041016,111.344086c-2.642944,59.80304 14.822021,104.312012 39,104.312012l146.447998,-0.093994c24.18103,0 45.950928,-48.539978 48.591064,-108.343018c2.640015,-59.803375 -14.850037,-108.34407 -39.029053,-108.34407z"/></g><g id="g12205" transform="matrix(0.42926 0 0.0134717 0.686631 521.89 24.9129)"><path id="path12106" fill="url(#linearGradient16461)" fill-rule="evenodd" stroke-dashoffset="0" stroke-linecap="round" stroke-miterlimit="4" stroke-width=".5" marker-end="none" marker-mid="none" marker-start="none" d="m994.239441,34.31337c-0.797974,-0.012497 -1.589966,0.054596 -2.406982,0.218689c-18.848022,3.786316 -32.47699,50.153107 -32.093018,101.406128c0.379028,50.788971 12.817993,87.812958 30.093018,83.625c19.101013,-4.629028 32.110962,-49.619019 32.091003,-100.406006c0.529968,-48.406311 -11.470032,-84.589218 -27.684021,-84.843811z"/><path id="path12108" fill="url(#linearGradient16463)" fill-rule="evenodd" stroke-dashoffset="0" stroke-linecap="round" stroke-miterlimit="4" stroke-width=".5" marker-end="none" marker-mid="none" marker-start="none" d="m1002.083435,50.06337c5.780029,-0.362503 8.75,13.53598 8.75,27.749786c0,1.965027 -0.059998,3.893005 -0.190002,5.759003c-6.709961,5.835999 -13.359985,12.574005 -18.723999,16.473022c-0.383972,-3.615997 0.106995,-10.184998 0.163025,-19.482025c0.084961,-14.149689 1.559998,-29.970886 10.000977,-30.499786z"/><path id="path12110" fill="url(#linearGradient16465)" fill-rule="evenodd" stroke-dashoffset="0" stroke-linecap="round" stroke-miterlimit="4" stroke-width=".5" marker-end="none" marker-mid="none" marker-start="none" d="m991.906433,100.096176l13.637024,-11.927002l4.659973,-0.899017l-16.620972,16.561005c-0.712036,-0.863007 -1.298035,-2.039978 -1.676025,-3.734985z"/><path id="path12112" fill="url(#linearGradient16467)" fill-rule="evenodd" stroke-dashoffset="0" stroke-linecap="round" stroke-miterlimit="4" stroke-width=".5" marker-end="none" marker-mid="none" marker-start="none" d="m1002.083435,50.06337c-3.985962,0.249695 -6.408997,3.905396 -7.875977,9.1875c5.322998,-0.026505 1.778992,11.10199 2.843994,11.1875c5.35199,0.429779 9.281982,3.97699 9.281982,13.374786c0,1.427002 -0.23999,2.791016 -0.659973,4.093994c-0.400024,1.250031 1.719971,0.614014 3.820007,0l-15.848022,15.844025c1.663025,1.497986 3.612976,2.299011 5.687012,2.062012c6.570984,-0.750031 10.250977,-8.030029 11.000977,-16.250031c0,-0.632996 -0.039978,-1.256989 -0.089966,-1.875c0,-0.009979 -0.01001,-0.020996 0,-0.031006c0.389954,-3.084991 0.589966,-6.393982 0.589966,-9.843994c0,-14.213806 -2.969971,-28.112289 -8.75,-27.749786z"/><path id="path12114" fill="url(#radialGradient16469)" fill-rule="evenodd" stroke-dashoffset="0" stroke-linecap="round" stroke-miterlimit="4" stroke-width=".5" marker-end="none" marker-mid="none" marker-start="none" d="m995.98645,126.757187a8.23753,24.285601 0 1 1 -16.474976,0a8.23753,24.285601 0 1 1 16.474976,0z"/><path id="path12116" fill="url(#linearGradient16471)" fill-rule="evenodd" stroke-dashoffset="0" stroke-linecap="round" stroke-miterlimit="4" stroke-width=".5" marker-end="none" marker-mid="none" marker-start="none" d="m1010.053467,110.188156c-4.119995,0.197021 -7.590027,5.405029 -9.40802,13.125c2.64801,-3.381989 6.278015,-6.921997 9.127991,-8.656006c2.230042,-1.358978 2.640015,5.785034 -5.130005,8.219025c1.910034,5.139984 2.860046,29.372986 -1.589966,29.624969c-0.720032,0.040039 -1.570007,-1.149994 -2.377014,-2.906982c1.776978,8.515991 5.096985,14.25 9.067017,14.25c5.649963,0 10.059998,-11.617004 10.059998,-26.437012c0,-14.819977 -3.580017,-26.815002 -9.130005,-27.218994c-0.200012,-0.014984 -0.419983,-0.01001 -0.619995,0z"/><path id="path12118" fill="url(#linearGradient16473)" fill-rule="evenodd" stroke-dashoffset="0" stroke-linecap="round" stroke-miterlimit="4" stroke-width=".513" marker-end="none" marker-mid="none" marker-start="none" d="m991.426453,154.751144c-2.021973,-0.011963 -3.541992,1.80603 -4.656006,4.812042c3.138977,4.348999 5.752991,14.991974 8.5,20.593994c5.942993,12.126984 -0.482971,19.023987 -10.156006,17.593964c-0.302002,-0.044983 -0.617981,-0.146973 -0.937988,-0.281982c0.815979,8.097992 3.182007,13.44101 9.156006,14.094025c4.312988,0.471985 7.281982,-8.404999 8.500977,-28.500031c1.190002,-19.618988 -4.421997,-27.390991 -9.875977,-28.249969c-0.184998,-0.029022 -0.354004,-0.061035 -0.531006,-0.062042z"/><path id="path12120" fill="url(#linearGradient16475)" fill-rule="evenodd" stroke-dashoffset="0" stroke-linecap="round" stroke-miterlimit="4" stroke-width=".513" marker-end="none" marker-mid="none" marker-start="none" d="m972.895447,124.376144c-2.823975,-0.069977 -5.848022,3.687012 -8.156006,9.25c0.104004,-0.06897 0.207031,-0.163971 0.312012,-0.218994c8.023987,-4.242981 7.781006,13.307037 7.781006,23.406036c0,6.654968 -0.992981,17.457001 -2.937012,24.062988c0.682983,0.320984 1.390991,0.484985 2.125,0.436981c6.945007,-0.45697 11.14801,-8.988983 9.093994,-28.906006c-1.455017,-14.092987 -1.973999,-27.876984 -8.218994,-28.031006z"/><path id="path12122" fill="url(#linearGradient16477)" fill-rule="evenodd" stroke-dashoffset="0" stroke-linecap="round" stroke-miterlimit="4" stroke-width=".506" marker-end="none" marker-mid="none" marker-start="none" d="m978.082458,56.719559c-0.203003,0.014801 -0.411987,0.051407 -0.625,0.093811c-1.143005,0.227295 -2.171021,1.0504 -3.093018,2.343689c7.677002,0.3703 3.713989,13.980621 3.031006,25.250092c-0.771973,12.719025 -2.570984,20.683014 -5.531006,23.062012c1.624023,3.428009 3.539001,5.600006 5.25,6c4.082031,0.954987 9.062012,-13.876007 9.062012,-29.467987c0,-15.105194 -1.784973,-27.740112 -8.093994,-27.281616z"/><path id="path12124" fill="url(#linearGradient16479)" fill-rule="evenodd" stroke-dashoffset="0" stroke-linecap="round" stroke-miterlimit="4" stroke-width=".5" marker-end="none" marker-mid="none" marker-start="none" d="m1010.303467,114.501144c-0.130005,0.021027 -0.27002,0.071014 -0.410034,0.156006c-2.849976,1.734009 -6.469971,5.274017 -9.119995,8.656006c-0.995972,3.845032 -1.565979,8.331024 -1.565979,13.125c0,4.822021 0.591003,9.296997 1.596008,13.156006c0.809998,1.756989 1.659973,2.947021 2.369995,2.906982c4.459961,-0.251984 3.5,-24.484985 1.599976,-29.624969c7.280029,-2.282013 7.380005,-8.701019 5.530029,-8.375031z"/><path id="path12126" fill="url(#linearGradient16481)" fill-rule="evenodd" stroke-dashoffset="0" stroke-linecap="round" stroke-miterlimit="4" stroke-width=".5" marker-end="none" marker-mid="none" marker-start="none" d="m986.770447,159.563187c-1.908997,5.151001 -2.676025,13.852966 -2.906006,23.124969c-0.138,5.53302 -0.117004,10.524017 0.312012,14.781006c0.320007,0.13501 0.635986,0.237 0.937988,0.281982c9.673035,1.430023 16.098999,-5.46698 10.156006,-17.593964c-2.747009,-5.60202 -5.361023,-16.244995 -8.5,-20.593994z"/><path id="path12128" fill="url(#linearGradient16483)" fill-rule="evenodd" stroke-dashoffset="0" stroke-linecap="round" stroke-miterlimit="4" stroke-width=".5" marker-end="none" marker-mid="none" marker-start="none" d="m967.082458,132.751144c-0.614014,0.038025 -1.278992,0.258026 -2.031006,0.656006c-0.10498,0.055023 -0.208008,0.150024 -0.312012,0.218994c-2.21698,5.341034 -3.75,12.358032 -3.75,19.312042c0,12.573975 3.617981,25.447968 8.906006,27.937988c1.944031,-6.605988 2.937012,-17.40802 2.937012,-24.062988c0,-9.153015 0.184998,-24.435028 -5.75,-24.062042z"/><path id="path12130" fill="url(#linearGradient16485)" fill-rule="evenodd" stroke-dashoffset="0" stroke-linecap="round" stroke-miterlimit="4" stroke-width=".5" marker-end="none" marker-mid="none" marker-start="none" d="m974.364441,59.157059c-3.083984,4.322723 -4.981995,14.023407 -5.968994,25.531097c-0.804993,9.382996 0.98999,17.553009 3.468994,22.781006c2.960022,-2.378998 4.759033,-10.342987 5.531006,-23.062012c0.682983,-11.26947 4.645996,-24.879791 -3.031006,-25.250092z"/><path id="path12132" fill="url(#linearGradient16487)" fill-rule="evenodd" stroke-dashoffset="0" stroke-linecap="round" stroke-miterlimit="4" marker-end="none" marker-mid="none" marker-start="none" d="m985.332458,68.969559c-1.322998,2.808807 -2.625,8.530609 -3.312012,15.124603c-0.976013,9.368011 -0.351013,16.968994 1.406006,16.968994c0.315979,0 0.664001,-0.260986 1,-0.718994c1.078979,-4.820984 1.75,-10.533997 1.75,-16.342987c0,-5.509003 -0.236023,-10.695313 -0.843994,-15.031616z" opacity=".3"/><path id="path12134" fill="url(#linearGradient16489)" fill-rule="evenodd" stroke-dashoffset="0" stroke-linecap="round" stroke-miterlimit="4" marker-end="none" marker-mid="none" marker-start="none" d="m977.582458,150.313156c-1.794006,0 -2.242004,12.768005 -1,28.500031c0.015991,0.204987 0.046021,0.390961 0.062988,0.593964c2.713989,-2.382965 4.510986,-7.078979 4.906006,-14.468964c-1.242981,-8.687042 -2.752014,-14.625031 -3.968994,-14.625031z" opacity=".3"/><path id="path12136" fill="url(#linearGradient16491)" fill-rule="evenodd" stroke-dashoffset="0" stroke-linecap="round" stroke-miterlimit="4" marker-end="none" marker-mid="none" marker-start="none" d="m994.332458,157.563187c-3.366028,0 -0.002014,8.981995 7.661011,21.687958c0.159973,-9.866974 -1.580994,-16.279968 -4.067017,-20.062988c-1.507996,-1.062012 -2.742981,-1.624969 -3.593994,-1.624969z" opacity=".4"/><path id="path12138" fill="url(#linearGradient16493)" fill-rule="evenodd" stroke-dashoffset="0" stroke-linecap="round" stroke-miterlimit="4" marker-end="none" marker-mid="none" marker-start="none" d="m980.832458,113.719162c-0.817993,3.772003 -1.312012,8.226013 -1.312012,13.031982c0,5.367004 0.59198,10.322021 1.593994,14.343018c2.171997,-2.070984 3.718018,-7.329987 3.718018,-13.530975c0,-6.473022 -1.676025,-11.981018 -4,-13.844025z"/><path id="path12140" fill="#fff" fill-rule="evenodd" stroke-dashoffset="0" stroke-linecap="round" stroke-miterlimit="4" stroke-width=".5" marker-end="none" marker-mid="none" marker-start="none" d="m994.145447,35.344559c-11.89502,2.796707 -16.598022,15.965302 -20.781006,26.093811c-2.72699,8.177002 -4.898987,16.515778 -6.531982,24.968781c1.565002,-7.597992 3.575012,-15.099274 6.031982,-22.468781c4.182983,-10.128601 8.885986,-23.297104 20.781006,-26.093796c8.487976,-0.378708 13.237976,8.685486 16.377991,15.281296c11.27002,27.793304 11.220032,58.763306 9.650024,88.406281c-0.910034,9.840027 -1.98999,19.873016 -3.869995,29.687012c2.200012,-10.608002 3.380005,-21.507996 4.369995,-32.186981c1.570007,-29.643036 1.619995,-60.613007 -9.650024,-88.406311c-3.140015,-6.595795 -7.890015,-15.660004 -16.377991,-15.281311z"/></g><g id="g12182"><path id="path4995" fill="url(#radialGradient16495)" fill-rule="evenodd" stroke-dashoffset="0" stroke-linecap="round" stroke-miterlimit="4" stroke-width="2" marker-end="none" marker-mid="none" marker-start="none" d="m732.809998,52.380783l-52.11499,1.125c-24.177979,0 -49.398987,51.541107 -52.041016,111.344086c-2.643005,59.803009 14.822021,104.312027 39,104.312027l55.593018,-0.094025c24.177979,0 45.951965,-48.539963 48.593994,-108.343002c2.643005,-59.802979 -14.853027,-108.344086 -39.031006,-108.344086z"/><path id="path11299" fill="url(#radialGradient16497)" fill-rule="evenodd" stroke-dashoffset="0" stroke-linecap="round" stroke-miterlimit="4" stroke-width="2" marker-end="none" marker-mid="none" marker-start="none" d="m732.809998,52.380783l-52.11499,1.125c-24.177979,0 -49.398987,51.541107 -52.041016,111.344086c-2.643005,59.803009 14.822021,104.312027 39,104.312027l55.593018,-0.094025c24.177979,0 45.951965,-48.539963 48.593994,-108.343002c2.643005,-59.802979 -14.853027,-108.344086 -39.031006,-108.344086z" opacity=".145"/><path id="path11295" fill="url(#radialGradient16499)" fill-rule="evenodd" stroke-dashoffset="0" stroke-linecap="round" stroke-miterlimit="4" stroke-width="2" marker-end="none" marker-mid="none" marker-start="none" d="m732.809998,52.380783l-52.11499,1.125c-24.177979,0 -49.398987,51.541107 -52.041016,111.344086c-2.643005,59.803009 14.822021,104.312027 39,104.312027l55.593018,-0.094025c24.177979,0 45.951965,-48.539963 48.593994,-108.343002c2.643005,-59.802979 -14.853027,-108.344086 -39.031006,-108.344086z"/><path id="path16305" fill="url(#linearGradient16501)" fill-rule="evenodd" stroke-dashoffset="0" stroke-linecap="round" stroke-miterlimit="4" stroke-width=".5" marker-end="none" marker-mid="none" marker-start="none" d="m737.559998,68.661987c-0.796997,-0.012497 -1.588989,0.054703 -2.406006,0.218811c-18.848999,3.786194 -32.47699,50.153091 -32.093994,101.406113c0.380005,50.789001 12.819031,87.813004 30.093994,83.624969c19.096008,-4.628998 32.113037,-49.618988 32.093018,-100.406006c0.523987,-48.405975 -11.473022,-84.589294 -27.687012,-84.843887z"/><path id="path7020" fill="url(#linearGradient16503)" fill-rule="evenodd" stroke-dashoffset="0" stroke-linecap="round" stroke-miterlimit="4" stroke-width=".5" marker-end="none" marker-mid="none" marker-start="none" d="m739.559998,66.661987c-0.796997,-0.012497 -1.588989,0.054703 -2.406006,0.218811c-18.848999,3.786194 -32.47699,50.153091 -32.093994,101.406113c0.380005,50.789001 12.819031,87.813004 30.093994,83.624969c19.096008,-4.628998 32.113037,-49.618988 32.093018,-100.406006c0.523987,-48.405975 -11.473022,-84.589294 -27.687012,-84.843887z"/><path id="path5034" fill="url(#linearGradient16505)" fill-rule="evenodd" stroke-dashoffset="0" stroke-linecap="round" stroke-miterlimit="4" stroke-width=".5" marker-end="none" marker-mid="none" marker-start="none" d="m747.403992,82.411987c5.783997,-0.362488 8.75,13.535904 8.75,27.749908c0,1.964005 -0.062012,3.89299 -0.187012,5.758987c-6.708008,5.835007 -13.362,12.573029 -18.72699,16.472992c-0.382996,-3.615967 0.108032,-10.184967 0.164001,-19.481979c0.085022,-14.150009 1.559021,-29.970901 10,-30.499908z"/><path id="rect6006" fill="url(#linearGradient16507)" fill-rule="evenodd" stroke-dashoffset="0" stroke-linecap="round" stroke-miterlimit="4" stroke-width=".5" marker-end="none" marker-mid="none" marker-start="none" d="m737.22699,132.44487l13.634033,-11.926987l4.66095,-0.898987l-16.617981,16.560989c-0.711975,-0.862976 -1.297974,-2.039978 -1.677002,-3.735016z"/><path id="path5020" fill="url(#linearGradient16509)" fill-rule="evenodd" stroke-dashoffset="0" stroke-linecap="round" stroke-miterlimit="4" stroke-width=".5" marker-end="none" marker-mid="none" marker-start="none" d="m747.403992,82.411987c-3.984985,0.24971 -6.408997,3.905914 -7.875,9.187912c5.322021,-0.027008 1.778015,11.10199 2.843018,11.186981c5.352966,0.430008 9.281982,3.97702 9.281982,13.375015c0,1.427002 -0.239014,2.789993 -0.656982,4.093994c-0.400024,1.248993 1.713013,0.613998 3.812988,0l-15.843994,15.844009c1.664001,1.497986 3.614014,2.298981 5.687988,2.062012c6.572021,-0.750031 10.25,-8.030029 11,-16.250015c0,-0.633011 -0.044006,-1.257004 -0.093994,-1.875c0.000977,-0.01001 -0.000977,-0.021011 0,-0.031006c0.390991,-3.085007 0.593994,-6.393997 0.593994,-9.843994c0,-14.214005 -2.966003,-28.112396 -8.75,-27.749908z"/><path id="path7002" fill="url(#radialGradient16511)" fill-rule="evenodd" stroke-dashoffset="0" stroke-linecap="round" stroke-miterlimit="4" stroke-width=".5" marker-end="none" marker-mid="none" marker-start="none" d="m741.307983,159.105881a8.23753,24.285601 0 1 1 -16.474976,0a8.23753,24.285601 0 1 1 16.474976,0z"/><path id="path7052" fill="url(#linearGradient16513)" fill-rule="evenodd" stroke-dashoffset="0" stroke-linecap="round" stroke-miterlimit="4" stroke-width=".5" marker-end="none" marker-mid="none" marker-start="none" d="m755.372009,142.536911c-4.114014,0.196991 -7.585999,5.404968 -9.406006,13.124969c2.650024,-3.381989 6.276001,-6.921997 9.125,-8.656006c2.232971,-1.358978 2.643982,5.785004 -5.125,8.218994c1.904968,5.140015 2.859985,29.373016 -1.593994,29.625c-0.716003,0.040039 -1.565979,-1.149994 -2.375,-2.906982c1.781006,8.515991 5.099976,14.25 9.062988,14.25c5.653015,0 10.062012,-11.617004 10.062012,-26.437012c0,-14.819977 -3.578979,-26.815002 -9.125,-27.218964c-0.205994,-0.015015 -0.421021,-0.01004 -0.625,0z"/><path id="path7073" fill="url(#linearGradient16515)" fill-rule="evenodd" stroke-dashoffset="0" stroke-linecap="round" stroke-miterlimit="4" stroke-width=".513" marker-end="none" marker-mid="none" marker-start="none" d="m736.747009,187.099899c-2.022034,-0.011993 -3.541992,1.805969 -4.656006,4.811981c3.140015,4.348999 5.753967,14.992004 8.5,20.593994c5.945007,12.126038 -0.483032,19.024017 -10.156006,17.594025c-0.301025,-0.045013 -0.617981,-0.147003 -0.937988,-0.282013c0.817017,8.098022 3.182983,13.44101 9.156982,14.093994c4.312988,0.472015 7.281006,-8.404968 8.5,-28.5c1.190002,-19.618988 -4.421997,-27.390991 -9.875,-28.249969c-0.184998,-0.029022 -0.35498,-0.061005 -0.531982,-0.062012z"/><path id="path7078" fill="url(#linearGradient16517)" fill-rule="evenodd" stroke-dashoffset="0" stroke-linecap="round" stroke-miterlimit="4" stroke-width=".513" marker-end="none" marker-mid="none" marker-start="none" d="m718.216003,156.724869c-2.823975,-0.069977 -5.846985,3.687012 -8.156006,9.25c0.10498,-0.069 0.208008,-0.163971 0.312012,-0.218994c8.024963,-4.242981 7.781982,13.307007 7.781982,23.406036c0,6.654968 -0.994019,17.457001 -2.937988,24.062958c0.682983,0.321014 1.391968,0.485016 2.125,0.437012c6.945984,-0.45697 11.148987,-8.988983 9.093994,-28.906006c-1.453979,-14.092987 -1.973999,-27.876984 -8.218994,-28.031006z"/><path id="path7081" fill="url(#linearGradient16519)" fill-rule="evenodd" stroke-dashoffset="0" stroke-linecap="round" stroke-miterlimit="4" stroke-width=".506" marker-end="none" marker-mid="none" marker-start="none" d="m723.403992,89.067902c-0.203979,0.014999 -0.411987,0.051987 -0.625,0.093994c-1.143005,0.22699 -2.171021,1.050995 -3.093994,2.343994c7.677002,0.37001 3.715027,13.979996 3.031006,25.25c-0.770996,12.719009 -2.570984,20.682999 -5.531006,23.061996c1.625,3.428009 3.539978,5.600006 5.25,6c4.083008,0.954987 9.062012,-13.876007 9.062012,-29.468002c0,-15.104996 -1.785034,-27.73999 -8.093018,-27.281982z"/><path id="path7125" fill="url(#linearGradient16521)" fill-rule="evenodd" stroke-dashoffset="0" stroke-linecap="round" stroke-miterlimit="4" stroke-width=".5" marker-end="none" marker-mid="none" marker-start="none" d="m755.622009,146.849869c-0.122986,0.021027 -0.265991,0.071014 -0.406006,0.156006c-2.848999,1.734009 -6.474976,5.274017 -9.125,8.656006c-0.992004,3.845032 -1.562012,8.330994 -1.562012,13.125c0,4.822021 0.590027,9.296021 1.593018,13.156006c0.809021,1.756989 1.658997,2.947021 2.375,2.906982c4.453979,-0.251984 3.498962,-24.484985 1.593994,-29.625c7.28302,-2.281982 7.388,-8.700989 5.531006,-8.375z"/><path id="path7151" fill="url(#linearGradient16523)" fill-rule="evenodd" stroke-dashoffset="0" stroke-linecap="round" stroke-miterlimit="4" stroke-width=".5" marker-end="none" marker-mid="none" marker-start="none" d="m732.091003,191.91188c-1.90802,5.151001 -2.674988,13.85199 -2.906006,23.125c-0.138,5.53299 -0.117004,10.524017 0.312012,14.781006c0.320007,0.13501 0.636963,0.237 0.937988,0.282013c9.672974,1.429993 16.101013,-5.467987 10.156006,-17.594025c-2.746033,-5.60199 -5.359985,-16.244995 -8.5,-20.593994z"/><path id="path7164" fill="url(#linearGradient16525)" fill-rule="evenodd" stroke-dashoffset="0" stroke-linecap="round" stroke-miterlimit="4" stroke-width=".5" marker-end="none" marker-mid="none" marker-start="none" d="m712.403992,165.099899c-0.614014,0.037994 -1.278992,0.257996 -2.031982,0.655975c-0.104004,0.055023 -0.207031,0.149994 -0.312012,0.218994c-2.21698,5.340027 -3.75,12.358032 -3.75,19.312042c0,12.573975 3.619019,25.447968 8.906006,27.937958c1.94397,-6.605957 2.937988,-17.40799 2.937988,-24.062958c0,-9.153015 0.184021,-24.435028 -5.75,-24.062012z"/><path id="path7330" fill="url(#linearGradient16527)" fill-rule="evenodd" stroke-dashoffset="0" stroke-linecap="round" stroke-miterlimit="4" stroke-width=".5" marker-end="none" marker-mid="none" marker-start="none" d="m719.684998,91.50589c-3.083984,4.321991 -4.981995,14.022995 -5.968994,25.531006c-0.804993,9.38298 0.990967,17.552994 3.468994,22.780991c2.960022,-2.378998 4.76001,-10.342987 5.531006,-23.061996c0.684021,-11.270004 4.645996,-24.87999 -3.031006,-25.25z"/><path id="path9040" fill="url(#linearGradient16529)" fill-rule="evenodd" stroke-dashoffset="0" stroke-linecap="round" stroke-miterlimit="4" marker-end="none" marker-mid="none" marker-start="none" d="m730.653992,101.317902c-1.323975,2.80899 -2.625977,8.530991 -3.312988,15.124985c-0.976013,9.368011 -0.349976,16.968994 1.406006,16.968994c0.315979,0 0.664978,-0.260986 1,-0.718994c1.078979,-4.820984 1.75,-10.533997 1.75,-16.343002c0,-5.509003 -0.236023,-10.694992 -0.843018,-15.031982z" opacity=".3"/><path id="path10036" fill="url(#linearGradient16531)" fill-rule="evenodd" stroke-dashoffset="0" stroke-linecap="round" stroke-miterlimit="4" marker-end="none" marker-mid="none" marker-start="none" d="m722.903992,182.66188c-1.794006,0 -2.242004,12.768005 -1,28.500031c0.015991,0.204987 0.046021,0.389984 0.062012,0.593964c2.715027,-2.382996 4.510986,-7.078979 4.906006,-14.468964c-1.242004,-8.687042 -2.752014,-14.625031 -3.968018,-14.625031z" opacity=".3"/><path id="path10049" fill="url(#linearGradient16533)" fill-rule="evenodd" stroke-dashoffset="0" stroke-linecap="round" stroke-miterlimit="4" marker-end="none" marker-mid="none" marker-start="none" d="m739.653992,189.91188c-3.367004,0 -0.002991,8.981995 7.656006,21.687988c0.164001,-9.866974 -1.577026,-16.279968 -4.062988,-20.062958c-1.507019,-1.062012 -2.742981,-1.625031 -3.593018,-1.625031z" opacity=".4"/><path id="path10281" fill="url(#linearGradient16535)" fill-rule="evenodd" stroke-dashoffset="0" stroke-linecap="round" stroke-miterlimit="4" marker-end="none" marker-mid="none" marker-start="none" d="m726.153992,146.067886c-0.817993,3.772003 -1.312988,8.226013 -1.312988,13.032013c0,5.366974 0.593018,10.321991 1.593994,14.342987c2.171997,-2.071014 3.718994,-7.330994 3.718994,-13.531006c0,-6.472992 -1.677002,-11.980988 -4,-13.843994z"/><path id="path10294" fill="#fff" fill-rule="evenodd" stroke-dashoffset="0" stroke-linecap="round" stroke-miterlimit="4" stroke-width=".5" marker-end="none" marker-mid="none" marker-start="none" d="m739.466003,67.693298c-11.89502,2.796585 -16.596985,15.965195 -20.781006,26.093582c-2.726013,8.177002 -4.89801,16.516006 -6.531006,24.969009c1.564026,-7.598007 3.574036,-15.098999 6.031006,-22.468994c4.184021,-10.128006 8.885986,-23.297012 20.781006,-26.093613c8.489014,-0.378784 13.234009,8.68541 16.375,15.281616c11.271973,27.792984 11.221985,58.763 9.656006,88.405975c-0.913025,9.840027 -1.989014,19.873016 -3.875,29.687012c2.203003,-10.608002 3.383972,-21.507996 4.375,-32.187012c1.565979,-29.643005 1.615967,-60.612976 -9.656006,-88.406387c-3.140991,-6.595795 -7.885986,-15.659988 -16.375,-15.281189z"/></g><path id="path7367" fill="url(#radialGradient16537)" fill-rule="evenodd" stroke-dashoffset="0" stroke-linecap="round" stroke-miterlimit="4" stroke-width="2" marker-end="none" marker-mid="none" marker-start="none" d="m255.735001,50.446899l-50.848999,-1.859406c-23.587997,-1.344894 -48.378006,44.875397 -51.169006,99.985397c-2.791992,55.109985 14.090012,97.208008 37.678009,98.553009l54.23999,3.005981c23.587997,1.345001 45.004013,-42.295013 47.794998,-97.405975c2.791016,-55.110016 -14.105988,-100.934113 -37.694992,-102.279007z"/><path id="rect5741" fill="#fdca01" fill-rule="evenodd" stroke-dashoffset="0" stroke-miterlimit="4" marker-end="none" marker-mid="none" marker-start="none" d="m644.653992,-104.619308c-26.684998,-0.080498 -55.898987,0.489098 -84.593994,2.343796c-91.377991,5.906204 -153.600983,8.898804 -299.093994,94.562515c-98.005997,-0.308815 -159.866005,86.79599 -179.156006,125.999893c-1.441101,20.985001 0.954201,43.258987 7.593704,66.937973c-0.182602,14.237 5.262199,23.967041 9.593796,34.593018c20.067505,3.660004 39.442505,5.955994 58.5625,7.719025l6.436996,-0.844025c77.187012,8.218994 156.772018,12.424988 236.781998,15.938019l15.187012,3.343994c39.862,1.108002 79.497986,3.401001 118.406006,1.875c63.524963,-2.492004 101.682007,-5.808014 137.218994,-11.938019c2.585022,-0.445984 9.531006,-20.811981 9.531006,-20.811981c3.822998,-51.367004 20.867981,-181.814209 57.593994,-183.250412c33.838989,-1.323288 41.369995,98.646408 25.218994,174.250412c51.15802,-16.138031 101.028015,-36.182007 153.875,-47.250031c0,0 10.86499,-86.562271 15.937012,-105.09407c0.982971,-3.59021 7.505005,-26.902603 14.187988,-29.718811c10.358032,-4.3647 15.763,-2.004105 13.937012,57.968811l3.468994,2.937088c-2.851013,-26.878998 7.067017,-31.460007 -8.968994,-74.780899c-10.637024,-28.738564 -28.913025,-39.687195 -33.093018,-40.343697c-13.026978,-2.046104 -55.164978,-4.111397 -65.468994,-4.593803c-1.77002,-3.276993 -5.723999,-6.378494 -10.843994,-8.093697c-1.121033,-0.3759 -2.242004,-0.667099 -3.343994,-0.875c-36.783997,-31.711601 -71.268005,-54.365601 -91.531006,-57.000099c-2.194031,-0.285301 -48.72998,-3.6978 -107.437012,-3.875z"/><path id="rect12277" fill="url(#linearGradient16539)" fill-rule="evenodd" stroke-dashoffset="0" stroke-linecap="round" stroke-miterlimit="4" stroke-width=".25" marker-end="none" marker-mid="none" marker-start="none" d="m634.528992,-104.619308c-23.860962,0.080498 -49.360962,0.720901 -74.468994,2.343796c-91.377991,5.906204 -153.600983,8.898804 -299.093994,94.562515c-1.636993,-0.005165 -3.257996,0.019501 -4.875,0.0625c4.79599,0.317261 9.539001,0.631256 14.625,1.09375l23.531006,-1.78125c129.751984,-2.150574 262.266968,-9.823059 389.25,-6.4375c11.177979,0.712975 20.018005,0.459045 36.406982,3.34375l86.968018,-41.249962l36.531982,8.75c-36.701965,-31.612206 -71.089966,-54.183304 -91.312988,-56.812599c-2.194031,-0.285301 -48.72998,-3.6978 -107.437012,-3.875c-3.335999,-0.010002 -6.71698,-0.011398 -10.125,0z"/><path id="path11867" fill="url(#linearGradient16541)" fill-rule="evenodd" stroke-dashoffset="0" stroke-miterlimit="4" marker-end="none" marker-mid="none" marker-start="none" d="m186.746994,202.567886c3.778,6.306 14.598999,5.569 23.407013,6.843994c6.631989,2.938019 4.886993,2.973022 -1.657013,4.593994c63.962997,4.243011 127.356003,8.476013 190.375015,12.718994l6.281982,7.312012c-3.28299,-7.952972 -4.149994,-14.468994 -2.718994,-19.593994l0.093994,-0.062012c-71.927002,-2.77298 -143.85498,-5.759979 -215.781998,-11.812988z"/><path id="rect8273" fill="url(#linearGradient16543)" fill-rule="evenodd" stroke-dashoffset="0" stroke-miterlimit="4" marker-end="none" marker-mid="none" marker-start="none" d="m81.747498,119.411896c-1.280701,20.655991 1.135201,42.556992 7.656204,65.812973c-0.182602,14.237 5.262199,23.967041 9.593796,34.593018c20.067505,3.660004 39.442505,5.955994 58.5625,7.719025l6.436996,-0.844025c77.187012,8.218994 156.772018,12.424988 236.781998,15.938019l15.187012,3.343994c39.862,1.108002 79.497986,3.401001 118.406006,1.875c16.748962,-0.657013 31.687988,-1.382019 45.312988,-2.188019l5.375,-19.405975c-11.617004,-31.515015 -24.5,-62.819 -41.375,-93.500031c-0.228027,0.218994 -0.458984,0.437012 -0.687988,0.656006c-183.401001,5.36499 -380.974014,-1.68399 -461.249512,-13.999985zm23.406502,81.499985l68.000008,0.5c76.666,6.878021 153.332993,10.046021 229.999985,13l164,-0.5c-13.385986,12.944 -28.800964,15.744995 -43.375,22.75c-122.25,0.285004 -235,-6.133972 -357.249985,-16.499969l-66.188004,-10.125031l4.812996,-9.125z"/><path id="path4913" fill="url(#linearGradient16545)" fill-rule="evenodd" stroke-dashoffset="0" stroke-miterlimit="4" marker-end="none" marker-mid="none" marker-start="none" d="m105.153999,200.91188l-4.812996,9.125l66.188004,10.125031c122.249985,10.365997 234.999985,16.784973 357.249985,16.499969c14.574036,-7.005005 29.989014,-9.806 43.375,-22.75l-164,0.5c-0.208984,-0.007996 -0.416992,-0.02301 -0.625,-0.031006l-0.093994,0.062012c-1.431,5.125 -0.563995,11.641022 2.718994,19.593994l-6.281982,-7.312012c-63.019012,-4.242981 -126.412018,-8.475983 -190.375015,-12.718994c6.544006,-1.620972 8.289001,-1.655975 1.657013,-4.593994c-8.808014,-1.274994 -19.629013,-0.537994 -23.407013,-6.843994c-4.530991,-0.381012 -9.061996,-0.748993 -13.592987,-1.156006l-68.000008,-0.5z"/><path id="path6199" fill="none" fill-rule="evenodd" stroke="#986601" stroke-dashoffset="0" stroke-miterlimit="4" marker-end="none" marker-mid="none" marker-start="none" d="m157.154007,82.1492c39.552994,-35.481705 84.635986,-60.177109 142.999985,-84.250015" opacity=".7"/><path id="rect6647" fill="url(#radialGradient16547)" fill-rule="evenodd" stroke-dashoffset="0" stroke-miterlimit="4" marker-end="none" marker-mid="none" marker-start="none" d="m651.078003,-14.528976c-40.53302,0.066673 -83.445984,4.746918 -123.505981,10.141266l-232.687012,3.125c-13.292023,-3.920807 -25.462006,-5.586548 -37.125,-6.249969c-96.300003,1.421722 -157.124008,87.15918 -176.219009,125.968567c-0.025597,0.372009 -0.039398,0.753006 -0.0625,1.125c80.275497,12.31601 277.848495,19.36499 461.250504,14c56.28302,-61.304993 120.35498,-139.3405 196.812012,-139.999817c-28.519043,-8.76297 -56.937988,-8.161926 -88.463013,-8.110046z"/><path id="path6193" fill="none" fill-rule="evenodd" stroke="url(#linearGradient16549)" stroke-dashoffset="0" stroke-miterlimit="4" marker-end="none" marker-mid="none" marker-start="none" d="m156.154007,82.3992c38.315994,-35.069611 82.899994,-60.181717 141.999985,-84.500015" opacity=".5"/><path id="path4925" fill="none" fill-rule="evenodd" stroke="url(#linearGradient16551)" stroke-dashoffset="0" stroke-miterlimit="4" marker-end="none" marker-mid="none" marker-start="none" d="m130.718002,99.89888c105.634995,9.657013 231.453995,8.433014 348.241989,6.5" opacity=".86"/><path id="path10364" fill="#000" d="m717.663025,-11.662216c6.783997,-24.259895 15.586975,-81.174591 37.613953,-81.10009c26.18103,0.0886 47.92804,19.343102 85.600037,48.102394c-12.122009,0.159401 -42.952026,-10.655998 -52.671997,6.855606c-5.384033,9.700798 -4.117004,23.494385 -3.679016,34.325302c-9.346008,1.108887 -27.012024,4.748001 -30.494019,2.687302c-4.573975,-2.707504 -26.768982,-10.773529 -36.368958,-10.870514z"/><path id="path6785" fill="#000" d="m597.622986,-100.150513c-62.515015,0.704506 -119.784973,5.007004 -174.516998,18.518806c-30.487,7.526398 -98.688995,41.180695 -153.358002,71.074959c-11.728973,6.30574 13.949005,6.57074 21.062012,8.687531c12.14801,1.5979 33.556,-0.3078 56,-0.718796c54.011017,-0.988892 119.658997,-0.926392 176.625,-0.625c59.450012,-11.539391 104.119995,-11.244766 165.5,-11.062485c8.934021,-27.793213 20.996033,-56.376411 34,-81.718712c-20.56897,-2.9674 -41.528015,-4.054604 -62.529968,-4.3759c-21.001038,-0.321297 -42.045044,0.123299 -62.782043,0.219597z"/><path id="rect16291" fill="url(#linearGradient16553)" fill-rule="evenodd" stroke-dashoffset="0" stroke-linecap="round" stroke-miterlimit="4" stroke-width="2" marker-end="none" marker-mid="none" marker-start="none" d="m593.15802,-70.954605l106.77301,0l-9.899048,28.637894l-86.266968,2.4748l-10.606995,-31.112694z" opacity=".8"/><path id="path8247" fill="#fff" d="m711.958008,-60.463013c-1.486023,-0.061096 -3.065979,0.313202 -4.5,1.187508c-12.087036,0.340797 -24.210999,0.637894 -36.093994,3.156296c-37.781006,7.264801 -73.666992,21.590401 -110.437012,32.531212c-4.416016,1.9487 -12.211975,2.86261 -14.656982,5.71875c6.552002,-1.044403 9.863953,3.830475 15.218994,6.4375c1.544983,0.619171 3.125977,1.106201 4.75,1.46875c9.592957,0.705536 -12.216003,-3.032745 -2.281006,-5.15625c19.039001,-6.056335 38.13501,-11.932259 57.125,-18.156258c22.348999,-7.841103 45.377991,-14.133308 69,-16.531204c4.739014,0.418701 12.083984,-2.625404 15.25,0.906197c-3.126038,11.5047 -7.55603,22.607605 -11.437988,33.875015c-8.997009,0.362946 -18.002014,0.730751 -27,1.09375c9.016968,-0.032379 18.105957,0.732994 27.062988,-0.375c4.171997,-7.520599 6.02301,-16.094963 9.75,-23.843765c1.674988,-3.534393 6.089966,-14.614395 10.187012,-9.343697c-4.822021,19.267998 -6.540039,26.32235 -6.531006,26.874962c0.469971,-0.510193 8.469971,-29.112762 10.593994,-30.187462c2.237,-5.481895 -1.541992,-9.473099 -6,-9.656303zm-191.968994,50.218765c-1.689026,0.095245 -3.454041,0.135345 -5,0.90625c-0.966003,0.445465 0.024963,1.387878 0.5,1.8125c0.992981,0.773407 2.083008,1.556976 2.656006,2.718781c0.43396,0.583405 0.007996,2.338608 1.187988,1.843704c1.21698,-0.255203 2.477966,0.069702 3.656006,0.375c0.791016,0.235901 1.576965,0.477005 2.375,0.6875c0.834961,0.290497 1.750977,0.411301 2.562988,-0.031189c2.750977,-1.133713 5.343018,-2.629105 7.812012,-4.281296c0.579956,-0.486511 1.467957,-0.869995 1.656006,-1.625c-0.93103,-0.353119 -1.907043,-0.567444 -2.875,-0.8125c-4.752991,-1.079979 -9.653015,-1.684113 -14.531006,-1.59375zm173.437988,4.937546c-2.403015,0.247894 -13.254028,3.798492 -18.625,5.687485c-53.244995,0.819305 -107.075012,4.551605 -158.218994,20.343704c-20.056,10.920395 -6.194,-5.232697 2.312012,-14.093689c0.10498,-9.417511 -15.956024,4.194199 -17.468018,9.531189c-18.350006,7.024612 -40.720001,5.465302 -60.562988,9.531311c-95.798004,16.663391 -193.805008,26.753891 -285.156021,62.124588c-17.229996,6.100006 -30.882996,14.473999 -44.655991,26.406998c-1.703003,1.904007 4.452995,1.394012 3.311996,0.468002c4.348,-6.188995 38.595001,-13.694992 26.531006,-13.686996c10.365997,-7.62001 31.822998,-10.73999 46.25,-16.687988c98.025986,-28.949417 199.906998,-40.585815 300.656998,-55.905914c10.556,0.782501 14.441986,-11.218399 22,-16.468689c-1.472992,6.68129 -24.419006,33.202301 -30.375,49.781189c9.884003,-11.760498 20.161987,-35.043396 41.531006,-35.781189c39.658997,-11.357803 80.716003,-18.903 121.968994,-20.718811c14.330994,-1.697891 29.85498,1.509598 42.718018,-6.343689c7.646973,-3.302307 9.222961,-4.336304 7.781982,-4.1875zm12.187012,2.156189c-4.462036,1.304398 -7.827026,1.914505 -15.031006,4.375c-3.72699,1.272995 -8.703003,3.543304 -7.968994,5.0625c3.007996,0.580307 7.138977,-2.486694 9,-3.125c4.401001,-1.247803 11.427979,-4.779495 14,-6.3125z"/><path id="rect8270" fill="#fff" fill-rule="evenodd" stroke-dashoffset="0" stroke-miterlimit="4" marker-end="none" marker-mid="none" marker-start="none" d="m155.813004,152.006912c84.520996,8.973999 229.646988,13.080994 256.917984,5.870972l-1.529999,12.338013c-81.138977,-2.07901 -162.206985,-4.087006 -246.983994,-9.805023l-8.403992,-8.403961z"/><path id="rect8267" fill="#666" fill-rule="evenodd" stroke-dashoffset="0" stroke-miterlimit="4" marker-end="none" marker-mid="none" marker-start="none" d="m86.358803,127.717911c33.440201,9.491974 80.426201,22.82196 91.118202,32.353973c-0.240005,13.507996 -0.281006,27.321014 0,41.266998c-4.346008,4.256989 -8.410004,8.444 -14.443008,13.122986c-23.830994,0.281006 -44.991997,-2.107971 -64.872696,-5.776978c-4.098297,-6.740997 -4.670998,-15.049011 -4.869598,-23.52298c-6.396706,-18.856018 -6.522102,-38.160004 -6.932899,-57.444z"/><path id="rect8294" fill="url(#linearGradient16555)" fill-rule="evenodd" stroke-dashoffset="0" stroke-miterlimit="4" marker-end="none" marker-mid="none" marker-start="none" d="m680.684998,216.349899c-31.503967,4.851013 -63.401978,8.116974 -95.781006,9.467987c0.052979,0.146027 0.103027,0.292999 0.156006,0.438019l-5.375,19.405975c38.065002,-2.255981 65.752014,-5.238983 91.906006,-9.75c2.330994,-0.401978 7.963989,-16.312012 9.093994,-19.561981zm-101.406006,29.342987c-1.018982,0.059998 -2.09198,0.097992 -3.125,0.157013l0,0.031006c1.078003,-0.062012 2.062988,-0.125 3.125,-0.188019z"/><path id="path8237" fill="url(#pattern16303)" fill-rule="evenodd" stroke-dashoffset="0" stroke-miterlimit="4" marker-end="none" marker-mid="none" marker-start="none" d="m86.358803,127.717911c33.440201,9.491974 80.426201,22.82196 91.118202,32.353973c-0.240005,13.507996 -0.281006,27.321014 0,41.266998c-4.346008,4.256989 -8.410004,8.444 -14.443008,13.122986c-23.830994,0.281006 -44.991997,-2.107971 -64.872696,-5.776978c-4.098297,-6.740997 -4.670998,-15.049011 -4.869598,-23.52298c-6.396706,-18.856018 -6.522102,-38.160004 -6.932899,-57.444z"/><g id="g9291"><path id="rect8264" fill="#666" fill-rule="evenodd" stroke-dashoffset="0" stroke-miterlimit="4" marker-end="none" marker-mid="none" marker-start="none" d="m389.798004,163.679886c0.997986,-3.985992 141.449982,-24.394989 147.769989,-21.710999c3.621033,1.538025 31.208984,67.417999 30.580994,71.201019c-0.335999,2.02597 -30.997009,17.238983 -41.320007,17.624969c-10.002991,0.373016 -100.040985,-1.802979 -105.049988,-2.100983c-12.415985,-0.739014 -15.665985,-5.889008 -18.908997,-14.124023c-1.862,-4.727997 -13.583008,-48.852997 -13.071991,-50.889984z"/><path id="path5943" fill="none" fill-rule="evenodd" stroke-dashoffset="0" stroke-miterlimit="4" marker-end="none" marker-mid="none" marker-start="none" d="m389.798004,163.679886c0.997986,-3.985992 141.449982,-24.394989 147.769989,-21.710999c3.621033,1.538025 31.208984,67.417999 30.580994,71.201019c-0.335999,2.02597 -30.997009,17.238983 -41.320007,17.624969c-10.002991,0.373016 -100.040985,-1.802979 -105.049988,-2.100983c-12.415985,-0.739014 -15.665985,-5.889008 -18.908997,-14.124023c-1.862,-4.727997 -13.583008,-48.852997 -13.071991,-50.889984z"/><path id="path8235" fill="url(#pattern9238)" fill-rule="evenodd" stroke-dashoffset="0" stroke-miterlimit="4" marker-end="none" marker-mid="none" marker-start="none" d="m389.798004,163.679886c0.997986,-3.985992 141.449982,-24.394989 147.769989,-21.710999c3.621033,1.538025 31.208984,67.417999 30.580994,71.201019c-0.335999,2.02597 -30.997009,17.238983 -41.320007,17.624969c-10.002991,0.373016 -100.040985,-1.802979 -105.049988,-2.100983c-12.415985,-0.739014 -15.665985,-5.889008 -18.908997,-14.124023c-1.862,-4.727997 -13.583008,-48.852997 -13.071991,-50.889984z"/><path id="path9240" fill="url(#linearGradient16557)" fill-rule="evenodd" stroke-dashoffset="0" stroke-miterlimit="4" marker-end="none" marker-mid="none" marker-start="none" d="m389.798004,163.679886c0.997986,-3.985992 141.449982,-24.394989 147.769989,-21.710999c3.621033,1.538025 31.208984,67.417999 30.580994,71.201019c-0.335999,2.02597 -30.997009,17.238983 -41.320007,17.624969c-10.002991,0.373016 -100.040985,-1.802979 -105.049988,-2.100983c-12.415985,-0.739014 -15.665985,-5.889008 -18.908997,-14.124023c-1.862,-4.727997 -13.583008,-48.852997 -13.071991,-50.889984z"/><path id="rect8239" fill="url(#linearGradient16559)" fill-rule="evenodd" stroke-dashoffset="0" stroke-miterlimit="4" marker-end="none" marker-mid="none" marker-start="none" d="m536.247009,141.78688c-3.953003,25.209015 -8.225037,49.140015 -8.531006,88.937988c11.085999,-1.143982 40.111023,-15.59198 40.437988,-17.562958c0.627991,-3.782013 -26.972961,-69.649017 -30.593994,-71.187042c-0.237,-0.100983 -0.713013,-0.149994 -1.312988,-0.187988z" opacity=".6"/><path id="path9287" fill="url(#linearGradient16561)" fill-rule="evenodd" stroke-dashoffset="0" stroke-miterlimit="4" marker-end="none" marker-mid="none" marker-start="none" d="m389.798004,163.679886c0.997986,-3.985992 141.449982,-24.394989 147.769989,-21.710999c3.621033,1.538025 31.208984,67.417999 30.580994,71.201019c-0.335999,2.02597 -30.997009,17.238983 -41.320007,17.624969c-10.002991,0.373016 -100.040985,-1.802979 -105.049988,-2.100983c-12.415985,-0.739014 -15.665985,-5.889008 -18.908997,-14.124023c-1.862,-4.727997 -13.583008,-48.852997 -13.071991,-50.889984z"/></g><path id="path9299" fill="url(#linearGradient16563)" fill-rule="evenodd" stroke-dashoffset="0" stroke-miterlimit="4" marker-end="none" marker-mid="none" marker-start="none" d="m86.372498,127.724869c0.410805,19.28302 0.509506,38.581024 6.906204,57.437042c0.198601,8.473969 0.776695,16.790985 4.875,23.530975c19.881302,3.669006 41.044296,6.062988 64.875305,5.782013c0.699997,-0.54303 1.37999,-1.095001 2.030991,-1.625031c-3.492996,-19.543976 -3.962997,-39.842957 -2.125,-60.718964c-19.350998,-8.166016 -51.684998,-17.345032 -76.5625,-24.406036z" opacity=".9"/><path id="path10282" fill="url(#linearGradient16565)" fill-rule="evenodd" stroke-dashoffset="0" stroke-miterlimit="4" marker-end="none" marker-mid="none" marker-start="none" d="m86.358803,127.717911c33.440201,9.491974 80.426201,22.82196 91.118202,32.353973c-0.240005,13.507996 -0.281006,27.321014 0,41.266998c-4.346008,4.256989 -8.410004,8.444 -14.443008,13.122986c-23.830994,0.281006 -44.991997,-2.107971 -64.872696,-5.776978c-4.098297,-6.740997 -4.670998,-15.049011 -4.869598,-23.52298c-6.396706,-18.856018 -6.522102,-38.160004 -6.932899,-57.444z"/><g id="g5950"><path id="rect8261" fill="#000" fill-rule="evenodd" stroke-dashoffset="0" stroke-miterlimit="4" marker-end="none" marker-mid="none" marker-start="none" d="m184.781998,11.844894l6.677002,3.280502c-28.955994,26.31929 -46.472,55.555695 -60.981995,85.486496l-34.554504,-4.803009c24.417496,-33.123199 51.698502,-62.97789 88.859497,-83.963989z"/><path id="path7087" fill="url(#linearGradient16567)" fill-rule="evenodd" stroke-dashoffset="0" stroke-miterlimit="4" marker-end="none" marker-mid="none" marker-start="none" d="m184.781998,11.844894l6.677002,3.280502c-28.955994,26.31929 -46.472,55.555695 -60.981995,85.486496l-34.554504,-4.803009c24.417496,-33.123199 51.698502,-62.97789 88.859497,-83.963989z"/><path id="rect4940" fill="url(#linearGradient16569)" fill-rule="evenodd" stroke-dashoffset="0" stroke-miterlimit="4" marker-end="none" marker-mid="none" marker-start="none" d="m187.934998,13.411987c-9.610992,5.143906 -18.651993,10.759598 -27.188004,16.8125c-19.446991,16.716003 -38.617996,33.608704 -51.186996,54.593399l27.031006,3.593994c13.375992,-25.653381 29.86499,-50.547791 54.875,-73.281097l-3.531006,-1.718796z"/><path id="path5926" fill="url(#linearGradient16571)" fill-rule="evenodd" stroke-dashoffset="0" stroke-miterlimit="4" marker-end="none" marker-mid="none" marker-start="none" d="m120.665001,73.66629c-3.122002,5.414597 -1.086998,9.531204 5.156998,9.531204c0.731003,0 1.470001,-0.079193 2.250008,-0.1875c-0.462006,-0.326904 -0.876007,-0.707001 -1.250008,-1.156204c-1.490997,-1.786499 -2.140999,-4.516296 -1.562996,-8.1875l-4.594002,0zm5,0l0.625,0.093704c-0.562004,3.498001 0.113998,5.894699 1.375,7.406296c0.57,0.68309 1.265999,1.177994 2.062996,1.531204c1.431,-0.317307 2.901001,-0.773605 4.375,-1.375015c-0.242996,-0.160782 -0.470001,-0.342697 -0.688004,-0.531189c-1.655991,-1.435211 -2.44899,-3.715897 -1.780991,-6.718796l0.968994,0.218796c-0.610992,2.745102 0.076996,4.54451 1.469009,5.75c0.347992,0.301407 0.748001,0.555893 1.186996,0.781204c3.794998,-1.722794 7.5,-4.238312 10.280991,-7.156204l-19.874992,0z"/><path id="path6910" fill="url(#linearGradient16573)" fill-rule="evenodd" stroke-dashoffset="0" stroke-miterlimit="4" marker-end="none" marker-mid="none" marker-start="none" d="m182.863998,16.033295c-1.171997,0.083893 -2.479004,-0.036606 -3.520996,0.576096c-4.951996,1.324799 -6.445007,3.592499 -8.811996,5.698608c-2.34201,3.317688 -2.840012,7.864792 -1.215012,11.603699c0.396011,0.941086 0.910004,1.830597 1.518005,2.64679c0.587997,-0.996994 2.070007,-1.902603 2.102997,-2.941589c-1.654999,-2.920303 -1.479996,-6.74881 0.393005,-9.521408c2.421997,-3.728394 7.136993,-5.49559 11.410995,-4.795898c0.962006,0.129105 1.959,0.771591 2.56601,-0.336792c0.424988,-0.560104 1.686996,-1.26181 1.58699,-1.721909c-1.906998,-0.797699 -3.968002,-1.209396 -6.029999,-1.207596z"/><path id="path6917" fill="url(#linearGradient16575)" fill-rule="evenodd" stroke-dashoffset="0" stroke-miterlimit="4" marker-end="none" marker-mid="none" marker-start="none" d="m182.863998,19.156693c-4.186005,-0.047699 -8.479996,2.304291 -10.25,6.245789c-1.240997,2.677307 -1.050995,5.958008 0.472,8.478806c4.251007,-4.936188 8.733002,-9.667694 13.431,-14.166794c-1.179993,-0.374603 -2.416992,-0.557907 -3.653,-0.5578z"/><path id="path7011" fill="url(#linearGradient16577)" fill-rule="evenodd" stroke-dashoffset="0" stroke-miterlimit="4" marker-end="none" marker-mid="none" marker-start="none" d="m175.309998,22.099487c-9.912994,3.093506 -17.625992,7.91011 -22.25,14.6875c-8.460999,4.702103 -13.423996,12.983704 -12.875,25.4375c3.264999,-12.964005 4.636002,-16.519897 11.344009,-22.843704c-2.501007,4.696411 -3.695007,10.202911 -3.313004,16.593704c6.653,-19.494095 8.647995,-22.062393 27.093994,-33.875zm-32.25,23c-5.585999,3.778305 -8.957001,11.320114 -8.625,23.375c2.117996,-13.453903 2.751007,-15.222488 8.625,-23.375z"/></g><path id="rect4924" fill="#000" fill-rule="nonzero" stroke="url(#linearGradient16579)" stroke-dashoffset="0" stroke-miterlimit="4" marker-end="none" marker-mid="none" marker-start="none" d="m288.403992,79.774185c5.804016,-0.886185 11.309021,-0.641205 16.25,1.5c-6.052979,8.074707 -13.928986,11.346695 -20.5,12.99971c0.076019,-4.149002 -0.813995,-8.78801 4.25,-14.49971z"/><path id="path7903" fill="url(#radialGradient16581)" fill-rule="evenodd" stroke-dashoffset="0" stroke-miterlimit="4" marker-end="none" marker-mid="none" marker-start="none" d="m698.403992,61.943298c-0.615967,1.294296 -1.219971,2.590286 -1.843994,3.875l-126.062988,38.156601c-9.054993,9.87999 -17.924011,19.699982 -26.593018,29.156006c16.694031,30.417969 29.473022,61.449982 41,92.686981c29.913025,-1.248016 59.402039,-4.148987 88.562012,-8.406006c-0.632019,-6.097992 -1.030029,-12.375 -1.187012,-18.781006c-0.934998,-38.186005 10.257019,-97.263977 26.125,-136.687576z" opacity=".45"/><path id="path7917" fill="none" fill-rule="evenodd" stroke="url(#linearGradient16583)" stroke-dashoffset="0" stroke-linecap="round" stroke-miterlimit="4" marker-end="none" marker-mid="none" marker-start="none" d="m570.367981,104.553894l128.694031,-39.951309l9.545959,3.182007" opacity=".5"/><path id="path10102" fill="#000" d="m717.916992,-11.547226c6.783997,-24.25988 15.587036,-81.174683 37.614014,-81.100082c26.180969,0.0886 47.927979,19.343094 85.599976,48.102402c-12.122009,0.159401 -44.719971,-11.009598 -54.438965,6.501999c-5.38501,9.700798 -2.351013,23.847946 -1.911987,34.678894c-9.346008,1.108902 -27.012024,4.748001 -30.494019,2.687302c-4.574036,-2.707504 -26.768982,-10.77356 -36.369019,-10.870514z"/><path id="path10104" fill="url(#radialGradient16585)" fill-rule="evenodd" stroke-dashoffset="0" stroke-miterlimit="4" marker-end="none" marker-mid="none" marker-start="none" d="m734.594971,-6.611557c-61.998962,3.494354 -115.792969,57.156555 -163.905945,109.656448l126.061951,-38.156403c10.993042,-22.629501 19.942017,-43.254395 44.55304,-47.726196l-0.020996,-21.586304c-2.150024,-0.941696 -4.376038,-1.659592 -6.688049,-2.187546z" opacity=".68"/><g id="g9895" display="inline"><path id="path10109" fill="#980101" fill-rule="evenodd" stroke-dashoffset="0" stroke-miterlimit="4" marker-end="none" marker-mid="none" marker-start="none" d="m663.353027,75.56279l35.001953,-11.31369l-3.888977,15.202789l-18.38501,3.182007l-12.727966,-7.071106z"/><path id="path9883" fill="url(#linearGradient16587)" fill-rule="evenodd" stroke-dashoffset="0" stroke-miterlimit="4" marker-end="none" marker-mid="none" marker-start="none" d="m668.344971,76.058182c5.134033,4.065399 10.761047,5.211212 16.965027,2.948105c8.026001,1.102097 9.072998,-5.352493 10.190979,-11.729294c-9.052002,2.927094 -18.104004,5.854095 -27.156006,8.781189z"/></g><path id="rect9899" fill="url(#linearGradient16589)" fill-rule="evenodd" stroke-dashoffset="0" stroke-linecap="round" stroke-miterlimit="4" marker-end="none" marker-mid="none" marker-start="none" d="m808.969971,-47.910507c-9.379944,0.032394 -18.028992,2.213699 -22.280945,9.875c-0.277039,0.499596 -0.518005,1.009201 -0.75,1.531197c-0.032043,0.072502 -0.062012,0.145897 -0.094055,0.218803c-0.210999,0.484901 -0.415955,0.966599 -0.593994,1.468697c-0.020996,0.061798 -0.040955,0.125603 -0.061951,0.1875c-0.199036,0.590401 -0.374023,1.170097 -0.531006,1.781303c-0.15802,0.611198 -0.285034,1.245499 -0.407043,1.875c28.054016,0.143898 61.663025,-1.797302 77.468994,6.656219c-0.580994,-3.16922 -2.002991,-6.903419 -3.530945,-10.312523c-1.90802,-4.256599 -6.638,-6.311897 -11.031006,-8.093697c-3.405029,-0.875404 -5.327026,-1.717201 -6.125,-1.8125c-0.040039,0.000298 -0.085022,-0.000099 -0.125,0c-0.22699,0.000595 -0.475037,-0.018806 -0.718994,-0.031303c-0.065002,-0.001801 -0.122009,0.002403 -0.188049,0c-0.019958,-0.001198 -0.041992,0.001396 -0.061951,0c-7.097046,-0.270699 -19.579041,-3.383095 -30.969055,-3.343697z" opacity=".826"/><path id="path10113" fill="#fff" d="m799.789978,-29.139809c32.902039,-1.181503 13.532043,14.539482 59.375,9.055107c-21.822998,16.558594 -69.067993,-11.769508 -67.773987,24.932495c-4.133972,-40.643799 -8.072998,-33.389702 8.398987,-33.987602zm-9.982971,-10.789604c7.231995,-4.766296 16.945984,-4.313393 25.205994,-3.457001c5.323975,0.552101 15.335999,1.090607 20.708008,1.370003c-9.437012,1.9282 -20.927979,0.948997 -27.916016,0.514198c-6.271973,-0.390198 -12.065002,-0.6306 -17.997986,1.5728z"/><path id="rect9941" fill="url(#radialGradient16591)" fill-rule="evenodd" stroke-dashoffset="0" stroke-linecap="round" stroke-miterlimit="4" marker-end="none" marker-mid="none" marker-start="none" d="m858.189026,-34.629311c1.527954,3.409103 2.949951,7.143303 3.530945,10.312523c-0.039978,-0.021629 -0.083984,-0.040955 -0.125,-0.0625c0.030029,0.30835 0.026001,0.618469 0.031006,0.9375c-1.532959,16.381409 -31.875977,12.887451 -62.5,15.5l-0.781006,21.749969l-20.030945,6.343811l2.125,3.906189c98,-25.318695 119.347961,-51.165092 146.875,-52.499992c-1.702026,-0.948296 -3.037048,-1.466896 -3.844055,-1.593697c-12.530945,-1.968399 -51.375977,-3.922501 -63.530945,-4.5l-1.75,-0.093803z"/><path id="rect9958" fill="url(#radialGradient16593)" fill-rule="evenodd" stroke-dashoffset="0" stroke-linecap="round" stroke-miterlimit="4" marker-end="none" marker-mid="none" marker-start="none" d="m927.309998,-28.431709c-27.526978,1.334801 -48.875,27.181297 -146.875,52.500008l-2.125,-3.906311c-8.427002,-5.847305 -15.60199,-8.847 -18.468994,-9.875c-3.252991,0.914597 -6.799988,9.212997 -10.75,8.25c0.846985,0.439407 1.666016,0.928207 2.468994,1.4375c34.91803,22.13591 29.255981,109.164413 25.625,163.781387l144.125,-50.156006c3.617004,-27.075989 9.325012,-67.63298 12.625,-79.687881c0.983032,-3.590195 7.504028,-26.902496 14.187012,-29.718704c10.359009,-4.3647 15.763,-2.004089 13.937988,57.968704l3.468994,2.937912c-2.85199,-26.879807 7.065979,-31.460709 -8.968994,-74.781601c-8.583008,-23.189041 -22.138,-34.787338 -29.25,-38.750008zm2.375,40.718697c-4.562988,1.899506 -10.440979,4.8013 -15.218994,5.843796c-0.859985,33.378906 -6.674011,59.469299 -18.468994,84.875107c12.38501,-32.7444 12.239014,-57.195908 15.468994,-83.812607l-0.125,0.0625c0.012024,-0.114288 0.02002,-0.229401 0.031006,-0.343796l-25.093018,9c-1.240967,13.083206 -4.362976,26.184402 -6.875,38.843811c1.835999,-12.457703 5.265991,-25.667404 5,-38.125l-1.406982,0.531189c-1.052002,15.3685 -4.393005,29.5784 -7.375,43.875c2.278992,-14.189697 6.049988,-28.785599 5.781982,-43.1875c-1.252991,0.1763 -2.48999,0.35321 -3.718994,0.5625c-0.158997,0.0271 -0.247986,-2.613495 -0.5,-2.5625c-0.221985,0.044907 -0.609985,2.787811 -0.75,2.8125c-0.862976,0.152512 -1.36499,0.209808 -2.218994,0.375c-0.228027,0.044098 -0.366028,-1.763702 -0.593994,-1.718689c-0.260986,0.051697 -0.613037,1.978394 -0.875,2.031189c-11.186035,2.260696 -21.679993,5.403702 -33.093018,6.75c10.926025,-3.588196 21.867004,-6.637802 33.125,-10.468689c-0.325989,-0.321701 -1.638977,-8.427612 -0.812988,-8.906311c-0.190002,0.895905 1.883972,8.350006 3.25,8.156311c17.856995,-5.536301 35.869995,-10.729202 54.468994,-14.593811zm-181.843994,5.656311c0.375977,0.284393 0.757019,0.454697 1.125,0.562485c-0.372009,-0.191589 -0.744019,-0.384796 -1.125,-0.562485z"/><g id="g10143"><path id="rect10129" fill="url(#radialGradient16595)" fill-rule="evenodd" stroke-dashoffset="0" stroke-linecap="round" stroke-miterlimit="4" marker-end="none" marker-mid="none" marker-start="none" d="m911.846985,18.432388l-22.138977,8.4375c-2.770996,32.846909 -9.026978,60.037994 -19.14801,80.041992c-9.327026,20.125 -24.062988,33.161987 -42.093994,45.156006l83.312988,-32.343002l-21.687988,2.999985l-0.343994,-4.906982c17.604004,-37.281998 19.921997,-69.093399 22.099976,-99.385498z"/><path id="rect9989" fill="#000" fill-rule="evenodd" stroke-dashoffset="0" stroke-linecap="round" stroke-miterlimit="4" marker-end="none" marker-mid="none" marker-start="none" d="m890.294006,27.631195l21.175964,-8.439301c-3.759949,30.980789 -2.915955,59.009995 -22.620972,100.621002l-18.708008,-12.096008c10.346008,-20.098007 17.343994,-46.796799 20.153015,-80.085693z"/></g><path id="rect11822" fill="url(#radialGradient16597)" fill-rule="evenodd" stroke-dashoffset="0" stroke-linecap="round" stroke-miterlimit="4" marker-end="none" marker-mid="none" marker-start="none" d="m859.841003,-30.619209c0.828003,2.178596 1.515991,4.355202 1.875,6.312462c-0.039978,-0.021675 -0.083984,-0.040985 -0.125,-0.0625c0.029968,0.308319 0.026001,0.618439 0.031006,0.9375c-0.314026,3.358948 -1.85199,5.869568 -4.343018,7.78125l10.437012,3.1875c7.947998,-5.048149 16.213013,-9.811096 25.937988,-13.437515c-10.541992,-2.011993 -21.940002,-3.508698 -33.812988,-4.718697z"/><path id="path11834" fill="#000" fill-rule="evenodd" stroke-dashoffset="0" stroke-linecap="round" stroke-miterlimit="4" marker-end="none" marker-mid="none" marker-start="none" d="m860.64801,-30.325409c0.787964,2.0746 1.44397,4.1474 1.786011,6.011192c-0.039001,-0.020607 -0.080017,-0.039009 -0.119019,-0.059517c0.028015,0.29364 0.023987,0.588921 0.028992,0.892761c-0.078979,0.845154 -0.239014,1.64389 -0.476013,2.380646c5.132019,0.708588 10.294006,1.462677 15.533997,2.499695c4.801025,-2.683472 9.875,-5.154358 15.445007,-7.231277c-10.039001,-1.915901 -20.893005,-3.341202 -32.198975,-4.4935z"/><path id="rect11845" fill="url(#radialGradient16599)" fill-rule="evenodd" stroke-dashoffset="0" stroke-linecap="round" stroke-miterlimit="4" marker-end="none" marker-mid="none" marker-start="none" d="m920.995972,134.709885c-51.028992,18.604004 -103.063965,34.513 -153.811951,53.875c-0.947998,5.931 -2.031006,11.792023 -3.25,17.5c51.156982,-16.136993 101.026978,-36.181976 153.875,-47.25c0,0 1.393982,-10.692993 3.186951,-24.125z"/><path id="path11877" fill="#fff" fill-rule="evenodd" stroke-dashoffset="0" stroke-linecap="round" stroke-miterlimit="4" marker-end="none" marker-mid="none" marker-start="none" d="m884.870972,151.397903c-0.703979,0.015991 -1.526001,0.224976 -2.5,0.624969c-15.357971,6.303009 -32.508972,8.449005 -46.186951,18.375031c-7.593994,5.509979 -16.994995,8.541992 -23.907043,14.875c-11.729004,10.745972 -36.579956,14.134979 -48.311951,20.592987c-0.015015,0.071991 -0.016052,0.147003 -0.031006,0.218994c22.110962,-6.975006 43.992004,-14.666016 65.967957,-22.062012c3.453003,-2.082001 6.869019,-4.22699 9.968994,-6.781982c4.89502,-4.03299 14.146057,-9.934998 23.281006,-12.75c3.163025,-0.973999 10.197998,-3.921021 12.813049,-1.092987c1.284973,1.388977 2.130981,3.293976 2.405945,5.311981c11.663025,-3.338989 23.407043,-6.394989 35.313049,-9c-1.809998,-0.665985 -3.783997,-0.972015 -5.875,-0.780975c-6.03302,0.550964 -18.666016,8.681976 -19.032043,-0.969025c-0.130005,-3.440002 -0.852966,-6.632996 -3.906006,-6.561981z"/><path id="path11882" fill="url(#linearGradient16601)" fill-rule="evenodd" stroke-dashoffset="0" stroke-linecap="round" stroke-miterlimit="4" stroke-width=".61" marker-end="none" marker-mid="none" marker-start="none" d="m872.495972,162.209885c-3.145996,0.02002 -7.169983,1.610992 -9.343994,2.281006c-9.134949,2.815002 -18.385986,8.71701 -23.281006,12.75c-3.106995,2.561005 -6.539001,4.695007 -10,6.781982c16.069031,-5.40799 32.186035,-10.643982 48.5,-15.312988c-0.274963,-2.018005 -1.120972,-3.923004 -2.405945,-5.311981c-0.817017,-0.884033 -2.039001,-1.196991 -3.469055,-1.188019z"/><path id="rect5068" fill="url(#radialGradient16603)" fill-rule="evenodd" stroke-dashoffset="0" stroke-linecap="round" stroke-miterlimit="4" marker-end="none" marker-mid="none" marker-start="none" d="m798.778992,1.630798l-0.437988,12.1875l-0.468994,0.156189c1.726013,2.022003 4.580017,3.571503 6.968994,7.4375c5.109009,8.268402 12.455017,15.944107 14.75,12.406311c3.041992,-4.689209 -3.02301,-19.288101 -5.593994,-21.718811c-5.263,-4.977493 -11.742004,-8.891296 -15.218018,-10.468689z"/><path id="rect6054" fill="url(#radialGradient16605)" fill-rule="evenodd" stroke-dashoffset="0" stroke-linecap="round" stroke-miterlimit="4" marker-end="none" marker-mid="none" marker-start="none" d="m784.653992,-3.338013c-4.888977,0.586609 -11.950989,1.813309 -18.125,2.593796c6.520996,4.085114 14.038025,7.984207 21.781006,12.781204c-4.370972,-5.898193 -2.896973,-10.374191 -3.656006,-15.375z"/><path id="rect6062" fill="url(#radialGradient16607)" fill-rule="evenodd" stroke-dashoffset="0" stroke-linecap="round" stroke-miterlimit="4" marker-end="none" marker-mid="none" marker-start="none" d="m737.653992,-7.181747l-0.531982,0.0625c22.221008,9.597641 26.360962,24.665131 55.656982,22.593735c-1.76001,-1.310394 -3.333984,-2.62709 -4.812988,-3.9375c0.115967,0.166397 0.218994,0.331299 0.343994,0.5c-7.742981,-4.796997 -15.26001,-8.696091 -21.781006,-12.781204c-5.675964,0.719299 -10.588013,1.04631 -12.25,0.062515c-2.322021,-1.374405 -9.174988,-4.107407 -16.625,-6.500046z"/><path id="path6158" fill="none" fill-rule="evenodd" stroke="url(#linearGradient16609)" stroke-dashoffset="0" stroke-linecap="round" stroke-miterlimit="4" marker-end="none" marker-mid="none" marker-start="none" d="m756.653992,0.149185c7.281982,5.372498 17.549011,13.046906 23.5,23.75c1.031006,32.908813 1.608032,65.931702 0,99.499695" opacity=".5"/><path id="path6073" fill="#eee" fill-rule="evenodd" stroke-dashoffset="0" stroke-linecap="round" stroke-miterlimit="4" marker-end="none" marker-mid="none" marker-start="none" d="m749.280029,1.458588c5.710999,3.627808 11.813965,8.289307 17.188965,11.451508c-0.400024,-4.779404 -7.346985,-7.07431 -11.076965,-9.746002c-2.585022,-2.192306 -5.761047,-3.800598 -8.82605,-4.2435c0.905029,0.845993 1.809998,1.692001 2.71405,2.537994z"/><path id="path6088" fill="url(#radialGradient16611)" fill-rule="evenodd" stroke-dashoffset="0" stroke-linecap="round" stroke-miterlimit="4" marker-end="none" marker-mid="none" marker-start="none" d="m741.559998,17.755798c-0.343994,-0.00061 -0.684998,0.014893 -1.031006,0.031189c-1.36499,0.064301 -2.735962,0.256012 -4.125,0.5625c-0.018982,0.005707 -0.044006,-0.005692 -0.062988,0c-20.909973,6.205704 -29.375,25.494507 -39.593994,46.531311l-0.718018,0.218689c-2.997009,9.203705 -4.847961,19.3564 -5.125,30.062408c-0.247986,9.561996 0.79303,18.768997 2.812012,27.280991c9.333984,-46.465698 23.926025,-89.769287 45,-90.593399c23.380005,-0.914291 34.184021,46.525314 33.312988,100.875381c3.851013,-11.691986 6.252991,-25.22998 6.625,-39.593979c0.04303,-1.684998 0.04303,-3.345001 0.031006,-5c-2.469971,-29.009201 -9.180969,-54.340805 -24.406006,-66.218903c-3.945984,-2.666199 -8.219971,-4.148499 -12.718994,-4.156189z"/><path id="path6111" fill="#fff" fill-rule="evenodd" stroke-dashoffset="0" stroke-linecap="round" stroke-miterlimit="4" marker-end="none" marker-mid="none" marker-start="none" d="m743.309998,31.661987c-0.60498,0.020004 -1.197998,0.084808 -1.812988,0.1875c-0.13501,0.022705 -0.270996,0.067703 -0.406006,0.093811c16.512024,1.74939 26.258972,28.752182 29.625,64.624588c2.234985,13.128998 3.625,30.964996 3.625,50.625c0,0.463989 0.002014,0.914001 0,1.375c1.202026,-8.935974 1.862976,-18.345001 1.906006,-27.843002c0.237,-51.041397 -14.171997,-89.683701 -32.937012,-89.062897z" opacity=".61"/><path id="path6128" fill="url(#radialGradient16613)" fill-rule="evenodd" stroke-dashoffset="0" stroke-linecap="round" stroke-miterlimit="4" marker-end="none" marker-mid="none" marker-start="none" d="m777.716003,152.130905c-2.237,13.970001 -4.111023,28.521973 -10.406006,36.406006c2.546997,-0.971039 5.103027,-1.920013 7.656006,-2.875031c1.348022,-9.910004 3.572998,-21.402985 2.75,-33.530975z"/><path id="path6132" fill="url(#radialGradient16615)" fill-rule="evenodd" stroke-dashoffset="0" stroke-linecap="round" stroke-miterlimit="4" marker-end="none" marker-mid="none" marker-start="none" d="m779.841003,112.224884c0.406006,24.951004 -1.265991,50.620987 -2.656006,71.530991l57.656006,-20.062988c-5.845032,-26.679993 -27.703979,-47.386002 -55,-51.468002z"/><path id="path6149" fill="url(#radialGradient16617)" fill-rule="evenodd" stroke="#986601" stroke-dashoffset="0" stroke-linecap="round" stroke-miterlimit="4" marker-end="none" marker-mid="none" marker-start="none" d="m767.153992,188.27388c52.988037,-17.238983 102.903992,-38.200989 153.5,-52.249969" opacity=".7"/><path id="path6176" fill="url(#radialGradient16619)" fill-rule="evenodd" stroke-dashoffset="0" stroke-linecap="round" stroke-miterlimit="4" marker-end="none" marker-mid="none" marker-start="none" d="m759.841003,10.286987c-2.643005,0.743103 -5.473022,6.373505 -8.562012,7.9375c-0.476013,0.240601 -0.950012,0.358795 -1.437988,0.375c-0.242981,0.008102 -0.502991,-0.002304 -0.75,-0.0625c0.846985,0.439407 1.666016,0.928207 2.468994,1.4375c0.187012,0.118408 0.375977,0.255997 0.562012,0.406296c21.518005,14.272614 27.312988,53.587006 27.75,94.344101c1.597961,-16.463989 0.578979,-63.841904 1.781982,-68.562897c2.111023,-8.285294 1.751038,-15.979904 -0.562988,-22.281189c-0.223999,0.058197 -0.43103,0.129288 -0.656006,0.1875l-2.125,-3.906311c-8.427002,-5.847305 -15.60199,-8.847 -18.468994,-9.875zm-12,7.656311c0.375977,0.284393 0.757019,0.454697 1.125,0.562485c-0.372009,-0.191589 -0.744019,-0.384796 -1.125,-0.562485z"/><path id="path6178" fill="none" fill-rule="evenodd" stroke="url(#linearGradient16621)" stroke-dashoffset="0" stroke-linecap="round" stroke-miterlimit="4" marker-end="none" marker-mid="none" marker-start="none" d="m756.653992,0.149185c7.281982,5.372498 17.549011,13.046906 23.5,23.75c1.031006,32.908813 1.608032,65.931702 0,99.499695" opacity=".643"/><path id="path6237" fill="none" fill-rule="evenodd" stroke="#fdca01" stroke-dashoffset="0" stroke-miterlimit="4" marker-end="none" marker-mid="none" marker-start="none" d="m857.689026,-16.454391l19.317993,7.353569c5.015991,9.65081 9.664978,20.074211 12.823975,31.582115" opacity=".3"/><path id="path4991" fill="url(#radialGradient16623)" fill-rule="evenodd" stroke-dashoffset="0" stroke-linecap="round" stroke-miterlimit="4" marker-end="none" marker-mid="none" marker-start="none" d="m952.716003,8.786987c-6.970032,0 -13.599976,13.457397 -18.125,34.093811c3.715027,-12.24411 10.029968,-20.843811 16.187988,-20.843811c0.955017,0 1.859985,0.198502 2.718018,0.593811c3.297974,0.126389 5.770996,2.927383 7.218994,11.562485c1.125977,4.534912 1.583008,10.095108 1.312988,16.1875c0.273987,8.15921 0.244995,18.430099 -0.156982,31.625015l3.468994,2.937088c-2.851013,-26.878998 7.067017,-31.460007 -8.968994,-74.780899c-0.007996,-0.021896 -0.02301,-0.040604 -0.031006,-0.0625c-1.169006,-0.837799 -2.366028,-1.3125 -3.625,-1.3125zm-21.312012,52.343796c-0.460022,3.414597 -0.867981,6.911804 -1.218994,10.531204c0.388,-2.27739 0.757996,-4.39949 1.125,-6.406204c-0.002991,-1.342896 0.017029,-2.721283 0.093994,-4.125z"/><path id="path5004" fill="#eee" fill-rule="evenodd" stroke-dashoffset="0" stroke-linecap="round" stroke-miterlimit="4" marker-end="none" marker-mid="none" marker-start="none" d="m954.934998,22.130783c-0.447998,-0.001389 -0.919983,0.107117 -1.406006,0.281204c-0.190979,0.068497 -0.372986,0.1409 -0.562988,0.25c7.007996,-0.298401 10.406982,10.037003 8.906006,59.343811l0.468994,0.406189c0.677002,-5.603989 1.062988,-11.918594 1.062988,-18.625c0.809998,-22.383804 -1.742004,-41.635498 -8.468994,-41.656204z" opacity=".7"/><g id="g8050"><g id="g7042"><path id="rect6661" fill="#000" fill-rule="evenodd" stroke-dashoffset="0" stroke-miterlimit="4" marker-end="none" marker-mid="none" marker-start="none" d="m618.153992,11.399185l56,-5c-40.955994,29.408401 -79.651001,59.954315 -117,100.999695l-80,-0.5c41.86499,-33.700089 84.728027,-67.037888 141,-95.499695z"/><path id="rect6982" fill="url(#linearGradient16625)" fill-rule="evenodd" stroke-dashoffset="0" stroke-linecap="round" stroke-miterlimit="4" stroke-width=".5" marker-end="none" marker-mid="none" marker-start="none" d="m674.153992,6.411987l-56,5c-6.347961,3.210709 -12.507019,6.484207 -18.531982,9.8125l10.531982,-3.3125l42.906006,3.9375c6.966003,-5.212997 13.997009,-10.341492 21.093994,-15.4375z"/><path id="path4929" fill="url(#linearGradient16627)" fill-rule="evenodd" stroke-dashoffset="0" stroke-miterlimit="4" marker-end="none" marker-mid="none" marker-start="none" d="m638.278992,14.943298c-0.490967,-0.009415 -0.984985,0.010086 -1.468994,0.031189c-14.867981,0.647308 -20.320007,7.219101 -28.281006,12.531296c-1.563965,3.955307 2.632996,14.242798 9.562012,21.875c12.187012,-10.151291 24.552979,-19.763885 37.125,-29.125c-5.338013,-3.159286 -11.340027,-5.205688 -16.937012,-5.312485z"/><path id="path7557" fill="url(#linearGradient16629)" fill-rule="evenodd" stroke-dashoffset="0" stroke-miterlimit="4" marker-end="none" marker-mid="none" marker-start="none" d="m615.299988,40.283295c-24.674011,0.287598 -44.346985,16.442886 -43.36499,28.941193c0.380005,4.843506 4.047974,9.128204 9.968994,12.625c15.606995,-15.1604 31.494019,-28.918106 47.687012,-41.875c-4.729004,-1.300507 -9.77301,0.25621 -14.291016,0.308807z"/><path id="path5857" fill="url(#linearGradient16631)" fill-rule="evenodd" stroke-dashoffset="0" stroke-miterlimit="4" marker-end="none" marker-mid="none" marker-start="none" d="m624.653992,40.630798c-3.036011,0.0923 -6.210999,0.776001 -9.343994,0.812485c-3.021973,0.035202 -5.942017,0.328003 -8.781006,0.8125c4.054016,0.997604 7.525024,3.49411 10.062012,6.875c3.391968,-2.835098 6.799988,-5.618088 10.218994,-8.374985c-0.286987,-0.0224 -0.552002,-0.116302 -0.843994,-0.125c-0.429993,-0.012909 -0.882996,-0.013107 -1.312012,0z"/><path id="path9369" fill="#000" fill-rule="evenodd" stroke-dashoffset="0" stroke-miterlimit="4" marker-end="none" marker-mid="none" marker-start="none" d="m602.528992,42.880798c-7.492981,0 -13.846985,5.299881 -16.187988,12.687485c2.370972,-5.330887 7.911987,-9.0625 14.375,-9.0625c5.395996,0 10.159973,2.602112 12.968994,6.562515c0.916016,-0.776016 1.832031,-1.543015 2.75,-2.3125c-3.116028,-4.764114 -8.176025,-7.875 -13.906006,-7.875z"/><path id="path8456" fill="#666" fill-rule="evenodd" stroke-dashoffset="0" stroke-miterlimit="4" marker-end="none" marker-mid="none" marker-start="none" d="m585.653992,65.161987c0.570007,3.508804 2.031982,6.667313 4.093018,9.218796c0.468018,-0.438202 0.937988,-0.876694 1.406982,-1.312485c-2.651001,-1.971909 -4.614014,-4.719208 -5.5,-7.906311z"/><path id="path10256" fill="#1a1a1a" fill-rule="evenodd" stroke-dashoffset="0" stroke-miterlimit="4" marker-end="none" marker-mid="none" marker-start="none" d="m599.122009,48.193283c-6.220032,0 -11.281006,5.015503 -11.281006,11.1875c0,4.653305 2.890991,8.629517 6.968994,10.312515c5.01001,-4.587112 10.057007,-9.050812 15.125,-13.406311c-1.349976,-4.674194 -5.669006,-8.093704 -10.812988,-8.093704z"/><path id="path4879" fill="url(#linearGradient16633)" fill-rule="evenodd" stroke-dashoffset="0" stroke-miterlimit="4" marker-end="none" marker-mid="none" marker-start="none" d="m600.716003,47.661987c-6.015015,0 -11.132996,3.474792 -13.312012,8.375c-0.278015,0.510101 -0.888977,0.737503 -1.432007,0.532806c-0.544006,-0.204803 -0.852966,-0.779007 -0.724976,-1.345306c0.812012,-2.562302 2.182983,-4.770706 3.812988,-6.75c-1.515015,0.852692 -3.041992,1.7034 -4.375,2.656296c-7.679993,5.491516 -12.033997,12.394714 -11.593994,18c0.322998,4.113007 3.430969,7.931107 8.687988,11.218704c9.96698,-9.649689 20.052002,-18.705307 30.25,-27.375c-2.641968,-3.179596 -6.684998,-5.3125 -11.312988,-5.3125z"/><path id="path4932" fill="#eee" fill-rule="evenodd" stroke-dashoffset="0" stroke-miterlimit="4" marker-end="none" marker-mid="none" marker-start="none" d="m601.341003,46.693298c-4.242981,-0.009003 -8.41803,2.153091 -11.218994,5.781189c3.200012,-3.306198 8.307983,-4.562195 13.093994,-2.8125c3.247009,1.186813 5.708984,3.524506 7.062988,6.343811c0.783997,-0.672699 1.557983,-1.36351 2.343018,-2.031311c-1.442993,-2.962601 -3.869995,-5.333099 -7.062012,-6.5c-1.387024,-0.507202 -2.804016,-0.778305 -4.218994,-0.781189z"/><path id="path4937" fill="#eee" fill-rule="evenodd" stroke-dashoffset="0" stroke-miterlimit="4" marker-end="none" marker-mid="none" marker-start="none" d="m589.184998,54.130783c-2.632996,3.407013 -3.609985,7.738907 -2.593994,11.593704c0.338989,1.284912 0.896973,2.515701 1.687988,3.656296c0.91803,1.32431 2.070007,2.401108 3.375,3.218704c0.763,-0.708603 1.517029,-1.422394 2.281006,-2.125c-1.620972,-0.863586 -3.085999,-2.115295 -4.218994,-3.75c-2.72699,-3.934998 -2.776001,-8.900406 -0.531006,-12.593704z"/><path id="path4962" fill="url(#linearGradient16635)" fill-rule="evenodd" stroke-dashoffset="0" stroke-miterlimit="4" marker-end="none" marker-mid="none" marker-start="none" d="m638.247009,16.536987c-0.429016,-0.008194 -0.893982,0.010406 -1.375,0.031296c-14.041992,0.611313 -19.064026,6.461502 -26.875,11.8125c-0.34198,1.238602 0.023987,4.39151 1.593994,8.0625c0.227966,0.531799 0.481018,1.078705 0.75,1.625015l30.343994,-20.968811c-1.497009,-0.319901 -2.991028,-0.534897 -4.437988,-0.5625z"/><path id="path4981" fill="url(#linearGradient16637)" fill-rule="evenodd" stroke-dashoffset="0" stroke-miterlimit="4" marker-end="none" marker-mid="none" marker-start="none" d="m639.747009,17.224487c-6.385986,0 -11.437012,5.822205 -11.437012,12.75c0,3.311508 1.182007,6.315506 3.062012,8.593796c3.325989,-2.645386 6.646973,-5.256195 10,-7.843796l0.062988,-5.593704l5.531006,-2.218796c0.440979,-0.175598 0.775024,-0.567307 0.875,-1.031189c0.101013,-0.464005 -0.046021,-0.939209 -0.375,-1.281311c-2.005005,-2.056107 -4.729004,-3.375 -7.718994,-3.375z"/><path id="path4947" fill="#980101" fill-rule="evenodd" stroke-dashoffset="0" stroke-miterlimit="4" marker-end="none" marker-mid="none" marker-start="none" d="m639.747009,18.661987c-5.513,0 -10,5.067398 -10,11.3125c0,2.989395 1.042969,5.695694 2.718994,7.718811c2.484009,-1.968704 4.969971,-3.90741 7.468994,-5.843811l0.062012,-7.6875l6.437988,-2.5625c-1.771973,-1.817093 -4.111023,-2.9375 -6.687988,-2.9375z"/><path id="path5974" fill="url(#radialGradient16639)" fill-rule="evenodd" stroke-dashoffset="0" stroke-miterlimit="4" marker-end="none" marker-mid="none" marker-start="none" d="m597.18103,51.212387c-3.707031,1.104813 -6.751038,4.80011 -6.767029,8.214401c-0.010986,2.552704 1.654968,4.269791 4.060974,4.497604c0.290039,0.031601 0.631042,-0.153107 0.821045,-0.444595c0.190002,-0.291611 0.177979,-0.611801 -0.028992,-0.770996c-0.799011,-0.624512 -1.276001,-1.606506 -1.271057,-2.837418c0.013,-2.736282 2.424011,-5.663589 5.39502,-6.548996c0.765015,-0.228088 1.479004,-0.30629 2.127991,-0.240295c0.290039,0.031601 0.631042,-0.153198 0.821045,-0.444702c0.190002,-0.291489 0.177979,-0.611801 -0.029053,-0.770996c-1.229004,-0.971603 -3.080994,-1.264694 -5.129944,-0.654007z"/><path id="path5977" fill="url(#radialGradient16641)" fill-rule="evenodd" stroke-dashoffset="0" stroke-miterlimit="4" marker-end="none" marker-mid="none" marker-start="none" d="m638.263,20.321182c-3.325989,0.801117 -6.263,4.045105 -6.528992,7.210907c-0.199036,2.367004 1.132019,4.059998 3.221008,4.416397c0.251953,0.046799 0.563965,-0.103989 0.750977,-0.3629c0.187988,-0.258896 0.200989,-0.556702 0.031982,-0.716888c-0.652954,-0.627304 -0.997986,-1.56691 -0.901978,-2.708313c0.213013,-2.537094 2.539978,-5.106796 5.205017,-5.748901c0.687012,-0.16539 1.317993,-0.194885 1.880981,-0.094589c0.252014,0.046799 0.564026,-0.104004 0.750977,-0.3629c0.188049,-0.258896 0.20105,-0.556808 0.032043,-0.716904c-1.004028,-0.975296 -2.603027,-1.358795 -4.442017,-0.915909z"/><path id="rect7030" fill="#fff" fill-rule="evenodd" stroke-dashoffset="0" stroke-linecap="round" stroke-miterlimit="4" stroke-width=".5" marker-end="none" marker-mid="none" marker-start="none" d="m640.497009,15.036987c0.065002,0.020599 0.210999,0.071304 0.281982,0.093796c4.85498,0.562607 9.884033,2.430511 14.437012,5.125c1.012024,-0.748489 2.018982,-1.501694 3.031006,-2.249985c-2.544006,-1.218506 -12.447998,-3.203217 -17.75,-2.968811z"/></g><path id="path7061" fill="#fff" fill-rule="evenodd" stroke="url(#radialGradient16643)" stroke-dashoffset="0" stroke-linecap="round" stroke-miterlimit="4" marker-end="none" marker-mid="none" marker-start="none" d="m514.669006,90.2659l59.396973,-2.82901"/></g><path id="path14244" fill="url(#linearGradient16645)" fill-rule="evenodd" stroke-dashoffset="0" stroke-linecap="round" stroke-miterlimit="4" stroke-width="2" d="m462.091003,-20.337997c-13.352997,1.02951 -26.714996,1.949768 -40.05899,3.105171c0.119995,3.968498 7.592987,0.418694 10.628998,1.110161c6.997986,-0.530121 13.994995,-1.060242 20.992981,-1.590332c-1.600983,1.513733 -6.690002,4.372284 -6.126984,5.058899c30.352997,-2.749725 60.78299,0.407501 91.063995,2.566101c1.687988,-3.819519 -6.564026,-1.693298 -8.950012,-2.657326c-25.391998,-1.904953 -50.89798,-3.943596 -76.362,-2.217674c3.291016,-3.894531 8.346008,-3.365082 12.921997,-3.311371c27.242004,0.72702 54.48999,1.267761 81.734009,1.936371c5.914001,2.638916 11.736023,5.48233 17.705994,7.994385c2.225037,-3.330719 -6.201965,-3.936584 -8.261963,-5.900848c-4.835022,-2.374634 -9.699036,-4.938332 -15.247009,-4.2341c-26.68103,-0.619812 -53.361023,-1.243721 -80.041016,-1.859436z" opacity=".6"/><path id="path14262" fill="url(#linearGradient16647)" fill-rule="evenodd" stroke-dashoffset="0" stroke-linecap="round" stroke-miterlimit="4" stroke-width="2" d="m319.684998,-18.556747c-0.304993,1.088379 5.470001,0.356384 7.472992,0.900505c4.835999,0.088661 11.766998,-2.833397 11.295013,5.643044c0.404999,3.588501 -0.506989,8.598297 4.640991,7.271286c11.776001,0.537201 23.545013,1.512405 35.32901,1.7146c7.087006,-0.076004 14.174988,-0.135895 21.261993,-0.185699c-5.815002,-1.475494 -12.191986,-0.773193 -18.227997,-1.446899c-9.494995,-2.188126 -19.212006,-3.962479 -28.792999,-5.997635c-2.541992,0.17173 -7.824005,-3.160866 -8.570007,-0.130646c-7.981995,5.390976 15.920013,2.862946 23.571991,5.372086c-8.909973,-0.48439 -17.820984,-0.968765 -26.730988,-1.45314c-1.079987,-3.454399 0.651001,-9.944275 -2.324005,-11.359863c-6.30899,-0.084747 -12.617004,-0.231506 -18.925995,-0.327637zm-2.656006,4.21875c-13.666992,0.120758 -27.333984,0.254211 -41,0.375c-5.369995,2.494995 2.987,2.081581 5.157013,1.925751c12.083008,-0.123932 24.167999,-0.121002 36.248993,-0.394501c1.009003,-0.329224 0.636017,-1.998039 -0.406006,-1.90625z" opacity=".6"/><path id="path15309" fill="url(#linearGradient16649)" fill-rule="evenodd" stroke-dashoffset="0" stroke-linecap="round" stroke-miterlimit="4" stroke-width="2" marker-end="none" marker-mid="none" marker-start="none" d="m643.434998,-34.463013c-5.065002,0.109703 -10.450012,0.659302 -16.031006,1.6875c-19.018005,3.503601 -35.742004,11.738205 -45.343994,21.281265c32.065002,-2.841125 62.937012,-2.915565 99.281006,-2.8125c0.000977,-0.0737 0,-0.145142 0,-0.21875c0,-12.632111 -15.958984,-20.41291 -37.906006,-19.937515z" opacity=".8"/></g></g></svg>