<svg xmlns="http://www.w3.org/2000/svg" xmlns:xlink="http://www.w3.org/1999/xlink" width="48" height="48" preserveAspectRatio="xMidYMid meet" version="1.1" viewBox="0 0 640 640"><defs><path id="bnhxhw4g" d="M334.3 439.32L175.58 439.32L175.58 178.73L451.61 178.73L451.61 369.16L493.02 369.16L493.02 148.66L134.18 148.66L134.18 469.39L334.3 469.39L334.3 439.32ZM361.9 386.59L361.9 469.39L493.02 386.59L361.9 386.59Z"/></defs><g><g><g><filter id="shadow401619" width="377.84" height="339.72" x="125.18" y="139.66" filterUnits="userSpaceOnUse" primitiveUnits="userSpaceOnUse"><feFlood/><feComposite in2="SourceAlpha" operator="in"/><feGaussianBlur stdDeviation="1"/><feOffset dx="1" dy="1" result="afterOffset"/><feFlood flood-color="#000" flood-opacity=".5"/><feComposite in2="afterOffset" operator="in"/><feMorphology operator="dilate" radius="1"/><feComposite in2="SourceAlpha" operator="out"/></filter><path id="a1l3siKDyK" fill="#fff" fill-opacity="1" d="M334.3 439.32L175.58 439.32L175.58 178.73L451.61 178.73L451.61 369.16L493.02 369.16L493.02 148.66L134.18 148.66L134.18 469.39L334.3 469.39L334.3 439.32ZM361.9 386.59L361.9 469.39L493.02 386.59L361.9 386.59Z" filter="url(#shadow401619)"/></g><use fill="#000" fill-opacity="1" opacity="1" xlink:href="#bnhxhw4g"/></g></g></svg>